<?xml version="1.0" standalone="no"?>
<!DOCTYPE svg PUBLIC "-//W3C//DTD SVG 1.1//EN" "http://www.w3.org/Graphics/SVG/1.1/DTD/svg11.dtd" >
<svg xmlns="http://www.w3.org/2000/svg" xmlns:xlink="http://www.w3.org/1999/xlink" version="1.1">
<metadata>
Created by FontForge 20170731 at Sat Mar  7 22:09:37 2020
 By Aleksey,,,
Copyright Gene Buban 2018
"Avengero
</metadata>
<defs>
<font id="Avengero-Disassembled" horiz-adv-x="3449" >
  <font-face 
    font-family="Avengero Disassembled"
    font-weight="400"
    font-stretch="normal"
    units-per-em="4096"
    panose-1="0 0 4 0 0 0 0 0 0 0"
    ascent="4096"
    descent="0"
    x-height="4311"
    cap-height="6294"
    bbox="-215 -862 12503 7372"
    underline-thickness="204"
    underline-position="103"
    unicode-range="U+0020-201D"
  />
<missing-glyph horiz-adv-x="3366" 
d="M3081 50l-1506 1978l-1506 -1978h3012zM50 69l1506 1979l-1506 1978v-3957v0zM3100 69v3957l-1506 -1978l1506 -1979v0zM1575 2067l1506 1979h-3012l1506 -1979v0zM0 0v4096h3150v-4096h-3150z" />
    <glyph glyph-name=".notdef" horiz-adv-x="3366" 
d="M3081 50l-1506 1978l-1506 -1978h3012zM50 69l1506 1979l-1506 1978v-3957v0zM3100 69v3957l-1506 -1978l1506 -1979v0zM1575 2067l1506 1979h-3012l1506 -1979v0zM0 0v4096h3150v-4096h-3150z" />
    <glyph glyph-name="glyph1" horiz-adv-x="646" 
 />
    <glyph glyph-name="glyph2" horiz-adv-x="646" 
 />
    <glyph glyph-name="space" unicode=" " horiz-adv-x="2371" 
 />
    <glyph glyph-name="quotedbl" unicode="&#x22;" 
d="M0 0l1077 4311h2264v-1q162 -9 278 -125q126 -127 126 -305q0 -87 -30 -162h3l-404 -1617h-1q-2 -4 -3 -9q-19 -139 -122 -242q-127 -126 -305 -126h-1159v-215l-647 646l647 647v-216h512q89 0 153 63q22 23 37 49l174 696q-7 12 -18 23q-32 32 -76 32h-593l-108 -431
l-862 -863l539 -539l-405 -1616h-1077z" />
    <glyph glyph-name="ampersand" unicode="&#x26;" horiz-adv-x="3233" 
d="M1940 1509v215h-1186v1q-162 9 -278 125q-126 127 -126 305q0 87 30 162h-3l485 1940v54h1078l-431 -1725h431v216l646 -647l-646 -646v0zM323 0v0q-162 9 -278 126q-125 126 -125 305q0 87 30 161h-3l160 647v54h1051l-108 -431h674l81 323h3q10 44 54 81h-3l876 876
l-553 552l404 1617h1078l-945 -3781q-6 -88 -29 -163q-19 -138 -122 -241q-126 -126 -305 -126h-1940z" />
    <glyph glyph-name="comma" unicode="," horiz-adv-x="1724" 
d="M215 -862l216 862h-431l215 862h1078l-431 -1724h-647z" />
    <glyph glyph-name="period" unicode="." horiz-adv-x="1724" 
d="M0 0l215 862h1078l-216 -862h-1077z" />
    <glyph glyph-name="zero" unicode="0" horiz-adv-x="3233" 
d="M1164 431v86h-302v-86h302zM1293 560v216h-86v-216h86zM1207 991v173h172v-173h-172zM1422 1207v172h173v-172h-173zM1465 1465v87h87v-87h-87zM1681 1465v87h86v-87h-86zM2242 1293v345h129v86h-189v-431h60zM3190 1681v86h86v-86h-86zM1681 1897v86h86v-86h-86z
M3406 1897v86h86v-86h-86zM3147 1853v173h172v-173h-172zM1897 2112v86h86v-86h-86zM3190 2112v86h86v-86h-86zM3406 2112v86h86v-86h-86zM3837 2112v86h86v-86h-86zM4052 2112v86h87v-86h-87zM4268 2112v86h86v-86h-86zM3535 2026v259h259v-259h-259zM4268 2328v86h86v-86
h-86zM4484 2328v86h86v-86h-86zM4484 2543v87h86v-87h-86zM4484 2759v86h86v-86h-86zM4699 2759v86h86v-86h-86zM4699 2974v87h86v-87h-86zM4915 2974v87h86v-87h-86zM4915 3190v86h86v-86h-86zM5130 3190v86h87v-86h-87zM1751 862l647 2587h-701l-506 -2027h16v-258h-81
l-43 -173h124v-43h172v-86h372zM2457 3880v86h-172v-86h172zM2586 4009v216h-86v-216h86zM1681 4268v86h86v-86h-86zM1681 4484v86h86v-86h-86zM1897 4484v86h86v-86h-86zM2112 4484v86h86v-86h-86zM2543 4484v86h87v-86h-87zM3190 4484v86h86v-86h-86zM323 0v0
q-162 9 -278 126q-125 126 -125 305q0 87 30 161h-3l834 3342h1q2 5 3 9v0q19 139 122 242q58 58 127 89v80h87v-52q41 9 86 9v86h172v43h43v173h173v-173h43v-129h5v-86h599v215h43v173h172v-173h43v-43h173v-86h258v86h173v-86h21v-1q162 -9 278 -125q127 -127 127 -305
q0 -87 -30 -162h3l-477 -1908h78v-172h-173v32h-129v-32h129v-43h173v-173h-173v-43h-215v-140h167l-216 -862h-1q-1 -5 -3 -10q-19 -138 -122 -241q-126 -126 -305 -126h-1913zM1681 4699v86h86v-86h-86zM2543 4699v86h87v-86h-87zM2759 4699v86h86v-86h-86zM3190 4699v86
h86v-86h-86zM1853 4656v172h173v-172h-173zM2931 4656v172h173v-172h-173zM3190 4915v86h86v-86h-86zM3621 4915v86h86v-86h-86zM3837 4915v86h86v-86h-86zM2069 4872v172h173v-172h-173zM3363 4872v172h172v-172h-172zM2328 5130v87h86v-87h-86zM3837 5130v87h86v-87h-86z
M4052 5130v87h87v-87h-87zM4268 5130v87h86v-87h-86zM4484 5130v87h86v-87h-86zM4699 5130v87h86v-87h-86zM4915 5130v87h86v-87h-86zM5561 5130v87h87v-87h-87zM5777 5130v87h86v-87h-86zM2543 5346v86h87v-86h-87zM4915 5346v86h86v-86h-86zM5130 5346v86h87v-86h-87z
M5346 5346v86h86v-86h-86zM5561 5346v86h87v-86h-87zM2543 5561v87h87v-87h-87z" />
    <glyph glyph-name="one" unicode="1" horiz-adv-x="1724" 
d="M1422 1207v172h173v-172h-173zM1465 1465v87h87v-87h-87zM1164 1638v86h-87v-86h87zM1681 1681v86h86v-86h-86zM1897 1897v86h86v-86h-86zM1897 2112v86h86v-86h-86zM2328 2112v86h86v-86h-86zM2069 2069v173h173v-173h-173zM2328 2328v86h86v-86h-86zM2543 2543v87h87
v-87h-87zM2285 2500v173h172v-173h-172zM2543 2759v86h87v-86h-87zM2759 2759v86h86v-86h-86zM2759 2974v87h86v-87h-86zM2974 2974v87h87v-87h-87zM3190 2974v87h86v-87h-86zM3190 3406v86h86v-86h-86zM3406 3837v86h86v-86h-86zM3837 3837v86h86v-86h-86zM819 4052v87h86
v-87h-86zM4268 4268v86h86v-86h-86zM0 0l862 3449h-216l76 302h-205v258h259v-129h215v86h86v43h-86v173h86v43h-86v172h173v-86h474v86h172v-86h87v43h86v-43h129v43h86v-86h-53l-507 -2026h172v-173h-172v173l-108 -432h65v-172h-173v-43h-43v-173h-172v-129h194
l-324 -1293h-1077zM1034 4484v86h87v-86h-87zM1250 4484v86h86v-86h-86zM1681 4484v86h86v-86h-86zM1422 4440v173h173v-173h-173zM1638 4656v172h172v-172h-172zM1681 4915v86h86v-86h-86zM1897 4915v86h86v-86h-86zM1897 5130v87h86v-87h-86zM2328 5130v87h86v-87h-86z
M2069 5087v173h173v-173h-173zM2328 5346v86h86v-86h-86zM2543 5346v86h87v-86h-87zM2716 5303v172h172v-172h-172zM2759 5561v87h86v-87h-86zM2974 5561v87h87v-87h-87zM3190 5561v87h86v-87h-86zM3406 5561v87h86v-87h-86zM3621 5561v87h86v-87h-86zM3837 5561v87h86v-87
h-86zM4268 5777v86h86v-86h-86z" />
    <glyph glyph-name="two" unicode="2" 
d="M172 1034v87h86v-87h-86zM388 1034v87h86v-87h-86zM1681 1034v87h86v-87h-86zM3190 1034v87h86v-87h-86zM388 1250v86h86v-86h-86zM3190 1250v86h86v-86h-86zM388 1465v87h86v-87h-86zM2328 1465v87h86v-87h-86zM2759 1465v87h86v-87h-86zM3406 1465v87h86v-87h-86z
M2543 1681v86h87v-86h-87zM2759 1681v86h86v-86h-86zM603 1897v86h86v-86h-86zM2759 1897v86h86v-86h-86zM2931 1853v173h173v-173h-173zM819 2112v86h86v-86h-86zM2974 2112v86h87v-86h-87zM3406 2112v86h86v-86h-86zM3621 2112v86h86v-86h-86zM3837 2112v86h86v-86h-86z
M3147 2069v173h172v-173h-172zM3837 2328v86h86v-86h-86zM4052 2328v86h87v-86h-87zM1250 2543v87h86v-87h-86zM4052 2543v87h87v-87h-87zM4052 2759v86h87v-86h-87zM4268 2759v86h86v-86h-86zM4268 2974v87h86v-87h-86zM4484 3190v86h86v-86h-86zM819 3621v86h86v-86h-86z
M3837 3621v86h86v-86h-86zM4915 3621v86h86v-86h-86zM1552 4096v129h-124v-129h124zM1034 4268v86h87v-86h-87zM26 0l243 970h216v215h215v151h-11v43h-172v259h172v43h200v97l1671 1671h-620l-108 -431h-1051v54l84 334h-46v86h67l3 11h188v75h-86v173h173v-87h129v87h-129
v129h-43v-43h-87v43h-37q0 98 37 180v79h48q19 24 41 46q124 124 299 126v86h173v43h258v-129h475v43h86v-43h86v86h173v-172h-87v-86h44v-87h-44v-172h87v129h43v173h172v-173h22v302h64v43h87v-43h43v129h259v-131q22 -3 43 -7v52h86v-80q69 -31 127 -89
q126 -127 126 -305q0 -87 -30 -162h3l-56 -226h45v-86h-67l-4 -15q-10 -159 -125 -274q-39 -39 -82 -66l-2109 -2108v27l-27 -108h172v43h87v-43h388l108 431h280v43h86v-86h-43v-43h86v215h43v173h173v-173h43v-258h-43v-173h-130v-129h130v129h129v259h-43v86h86v-43h280
l-97 -388h33v-86h-54l-205 -819h-2776zM1250 4484v86h86v-86h-86zM2759 4484v86h86v-86h-86zM3190 4484v86h86v-86h-86zM3837 4484v86h86v-86h-86zM1422 4440v173h173v-173h-173zM3363 4440v173h172v-173h-172zM3578 4440v173h173v-173h-173zM2974 4699v86h87v-86h-87z
M3837 4699v86h86v-86h-86zM4052 4699v86h87v-86h-87zM4268 4699v86h86v-86h-86zM4484 4699v86h86v-86h-86zM4699 4699v86h86v-86h-86zM4915 4699v86h86v-86h-86zM5130 4699v86h87v-86h-87zM1595 4613v43h-173v172h173v44h258v-259h-258zM1681 4915v86h86v-86h-86zM5130 4915
v86h87v-86h-87zM5346 4915v86h86v-86h-86zM5561 4915v86h87v-86h-87zM1853 4872v172h173v-172h-173zM2112 5130v87h86v-87h-86zM5561 5130v87h87v-87h-87zM2112 5346v86h86v-86h-86zM2543 5346v86h87v-86h-87zM5993 5346v86h86v-86h-86zM2285 5303v172h172v-172h-172z
M2543 5561v87h87v-87h-87zM2759 5561v87h86v-87h-86zM2759 5777v86h86v-86h-86zM2759 5993v86h86v-86h-86zM2974 5993v86h87v-86h-87zM3190 5993v86h86v-86h-86zM3190 6208v86h86v-86h-86zM3406 6208v86h86v-86h-86zM3837 6424v86h86v-86h-86z" />
    <glyph glyph-name="three" unicode="3" horiz-adv-x="3233" 
d="M905 431v43h-340v-43h340zM2759 603v86h86v-86h-86zM2974 819v86h87v-86h-87zM1034 1034v87h87v-87h-87zM2974 1034v87h87v-87h-87zM3190 1250v86h86v-86h-86zM776 1207v172h172v-172h-172zM2931 1207v172h173v-172h-173zM1034 1465v87h87v-87h-87zM3190 1681v86h86v-86
h-86zM3406 1681v86h86v-86h-86zM2974 1897v86h87v-86h-87zM3406 1897v86h86v-86h-86zM1077 2155v43h-129v-43h129zM3406 2112v86h86v-86h-86zM3837 2112v86h86v-86h-86zM4052 2543v87h87v-87h-87zM1465 2759v86h87v-86h-87zM3190 2759v86h86v-86h-86zM4268 2759v86h86v-86
h-86zM1207 2716v172h172v-172h-172zM1465 2974v87h87v-87h-87zM1681 3190v86h86v-86h-86zM3190 3190v86h86v-86h-86zM3363 3147v172h172v-172h-172zM3406 3406v86h86v-86h-86zM3578 3363v172h173v-172h-173zM3621 3621v86h86v-86h-86zM3837 3621v86h86v-86h-86zM3837 3837
v86h86v-86h-86zM4009 3794v172h173v-172h-173zM1552 3966v43h-43v-43h43zM4052 4052v87h87v-87h-87zM0 0l204 819h-32v86h86v-43h43v129h216v216h259v-259h-216v-86h5v-43h38v86h86v-86h130v86h86v-86h172v43h512q90 0 153 63q23 22 37 48l174 697q-7 12 -18 23
q-32 31 -76 31h-1213l173 345h-43v173h129v301h43v173h259v-43h172v-87h86v44h87v-44h129v44h86v-44h254q89 0 152 63q23 23 37 49l174 696q-7 12 -18 23q-31 32 -76 32h-1428l108 431h15q15 78 48 143q8 16 16 29h-15v87h43v129h-43v86h87v-43h129v43h86v-43h129v43h87v-86
h-43v-86h86v-130h86v87h86v-87h43v173h130v86h172v43h86v-43h130v43h86v-43h711v-1q162 -9 278 -125q127 -127 127 -305q0 -45 -8 -86h56v-259h-183v-140h-205v-119h-129v-86h-43v-43h129v-43h172v-173h-172v-43h-129v-140h215q0 -179 -63 -305q-22 -44 -48 -73
q-28 -47 -69 -88q-126 -127 -305 -127h-162v0q162 -9 278 -126q111 -111 125 -262h72v-86h-87v43h-215v-129h129v-173h-172v130h-86v-87h-44v-129h44v-86h-87v43h-258v-43h43v-129h86v-44h86v87h60v75h156v140h172v-172h-13l-208 -830h-1q-1 -5 -3 -10q-19 -138 -122 -241
q-126 -126 -305 -126h-2236zM4052 4268v86h87v-86h-87zM1250 4484v86h86v-86h-86zM1681 4484v86h86v-86h-86zM1897 4484v86h86v-86h-86zM4052 4484v86h87v-86h-87zM1422 4440v173h173v-173h-173zM1465 4699v86h87v-86h-87zM4268 4699v86h86v-86h-86zM1638 4656v172h172v-172
h-172zM4009 4656v172h173v-172h-173zM1681 4915v86h86v-86h-86zM4268 4915v86h86v-86h-86zM4484 4915v86h86v-86h-86zM1681 5130v87h86v-87h-86zM1897 5130v87h86v-87h-86zM4484 5130v87h86v-87h-86zM4699 5130v87h86v-87h-86zM1897 5346v86h86v-86h-86zM2112 5346v86h86
v-86h-86zM2328 5346v86h86v-86h-86zM2543 5346v86h87v-86h-87zM2759 5346v86h86v-86h-86zM4699 5346v86h86v-86h-86zM4915 5346v86h86v-86h-86zM2974 5561v87h87v-87h-87zM3190 5561v87h86v-87h-86zM5130 5777v86h87v-86h-87zM3621 5993v86h86v-86h-86z" />
    <glyph glyph-name="four" unicode="4" 
d="M1681 819v86h86v-86h-86zM3190 819v86h86v-86h-86zM2974 1034v87h87v-87h-87zM3190 1250v86h86v-86h-86zM1897 1465v87h86v-87h-86zM3190 1465v87h86v-87h-86zM3621 1465v87h86v-87h-86zM3406 1681v86h86v-86h-86zM3406 1897v86h86v-86h-86zM3578 1853v173h173v-173h-173
zM1509 2155v43h-216v-43h216zM3621 2112v86h86v-86h-86zM3837 2112v86h86v-86h-86zM4052 2328v86h87v-86h-87zM1336 2543v43h-43v-43h43zM4009 2500v173h173v-173h-173zM4268 2759v86h86v-86h-86zM2112 2974v87h86v-87h-86zM4268 2974v87h86v-87h-86zM2328 3190v86h86v-86
h-86zM4484 3406v86h86v-86h-86zM2328 3621v86h86v-86h-86zM819 3837v86h86v-86h-86zM1034 4052v87h87v-87h-87zM3621 4052v87h86v-87h-86zM1034 4268v86h87v-86h-87zM3621 4268v86h86v-86h-86zM3837 4268v86h86v-86h-86zM1250 4484v86h86v-86h-86zM1465 4484v86h87v-86h-87z
M1897 4484v86h86v-86h-86zM2974 4484v86h87v-86h-87zM3837 4484v86h86v-86h-86zM1724 0l431 1724h-1724l539 2156h151v172h172v130h-129v258h258v-129h173v129h43v173h172v-173h43v-129h302l-388 -1552h86v129h173v-172h-129v-86h86v-44h388l431 1725h561v86h172v-172h43
v-259h-129v-43h43v-86h-43v-259h86v216h259v-259h-216v-86h86l-409 -1639h64v-172h-172v-43h-173v-43h87v-87h-87v-43h173v-258h-259v172h-86v-215h43v-87h-43v-43h129v-129h87l-216 -862h-1078zM3578 4440v173h173v-173h-173zM3837 4699v86h86v-86h-86zM1422 4656v172h173
v-172h-173zM1465 4915v86h87v-86h-87zM3837 4915v86h86v-86h-86zM1638 4872v172h172v-172h-172zM4009 4872v172h173v-172h-173zM1681 5130v87h86v-87h-86zM1897 5130v87h86v-87h-86zM4052 5130v87h87v-87h-87zM4268 5130v87h86v-87h-86zM1897 5346v86h86v-86h-86zM2328 5346
v86h86v-86h-86zM4268 5346v86h86v-86h-86zM2069 5303v172h173v-172h-173zM2328 5561v87h86v-87h-86zM2543 5561v87h87v-87h-87zM2759 5561v87h86v-87h-86zM2974 5561v87h87v-87h-87zM4268 5561v87h86v-87h-86zM4484 5561v87h86v-87h-86zM2974 5777v86h87v-86h-87zM3190 5777
v86h86v-86h-86zM4484 5777v86h86v-86h-86zM4699 5777v86h86v-86h-86zM3406 5993v86h86v-86h-86zM4699 5993v86h86v-86h-86zM4915 5993v86h86v-86h-86zM3837 6424v86h86v-86h-86z" />
    <glyph glyph-name="five" unicode="5" 
d="M1336 431v172h129v86h44v130h-44v-130h-129v-86h-86v86h-173v-86h173v-172h86zM1465 1034v87h87v-87h-87zM1465 1250v86h87v-86h-87zM2974 1250v86h87v-86h-87zM3190 1250v86h86v-86h-86zM1681 1465v87h86v-87h-86zM2974 1465v87h87v-87h-87zM3621 2112v86h86v-86h-86z
M2543 2328v86h87v-86h-87zM3621 2328v86h86v-86h-86zM2759 2543v87h86v-87h-86zM3621 2543v87h86v-87h-86zM1897 2759v86h86v-86h-86zM2543 2759v86h87v-86h-87zM2974 2759v86h87v-86h-87zM3190 2759v86h86v-86h-86zM3406 2759v86h86v-86h-86zM3621 2759v86h86v-86h-86z
M3837 2759v86h86v-86h-86zM2716 2716v172h172v-172h-172zM3190 2974v87h86v-87h-86zM3406 2974v87h86v-87h-86zM3837 2974v87h86v-87h-86zM4052 2974v87h87v-87h-87zM2931 2931v173h173v-173h-173zM4052 3190v86h87v-86h-87zM4268 3190v86h86v-86h-86zM4268 3406v86h86v-86
h-86zM4484 3621v86h86v-86h-86zM4484 3837v86h86v-86h-86zM2759 4052v87h86v-87h-86zM2974 4052v87h87v-87h-87zM2974 4268v86h87v-86h-87zM1250 4484v86h86v-86h-86zM1465 4484v86h87v-86h-87zM1681 4484v86h86v-86h-86zM3837 4484v86h86v-86h-86zM4915 4484v86h86v-86h-86
zM0 0l323 1293h496v43h86v-43h302v86h172v-172h-27l-43 -173h156v-129h87v-43h253q89 0 153 63q22 22 37 48l174 697q-7 12 -18 23q-32 31 -77 31h-1616v54l619 2479v11h-43v86h87v-43h43v129h474v-129h690v43h86v130h259v172h258v-259h-172v-258h-173v-259h475v172h172v216
h-43v86h86v-43h43v129h216v216h259v-259h-216v-86h43v43h86v-86h-53l-205 -819h-1536l-205 -819h59v-44h561v44h86v-87h-43v-43h86v216h259v-259h-216v-215h-129v-87h259v173h86v129h167v129q179 0 305 -126q78 -78 107 -175h68v172h172v-172h43v-259h-283q-5 -17 -11 -32h3
l-46 -184h78v-172h-121l-11 -43h132v-173h-172v173h32v43h-32v32h-173v-118h-129v-87h-43v-43h129v-183h167l-215 -862h-1q-2 -5 -3 -10q-19 -138 -122 -241q-127 -126 -305 -126h-2452zM1681 4699v86h86v-86h-86zM1897 4699v86h86v-86h-86zM2543 4699v86h87v-86h-87z
M2974 4699v86h87v-86h-87zM3837 4699v86h86v-86h-86zM4052 4699v86h87v-86h-87zM4268 4699v86h86v-86h-86zM3190 4915v86h86v-86h-86zM4052 4915v86h87v-86h-87zM4268 4915v86h86v-86h-86zM2112 5130v87h86v-87h-86zM4268 5130v87h86v-87h-86zM4484 5130v87h86v-87h-86z
M4484 5346v86h86v-86h-86zM4699 5346v86h86v-86h-86zM2543 5561v87h87v-87h-87zM4699 5561v87h86v-87h-86zM4915 5561v87h86v-87h-86zM4699 5777v86h86v-86h-86zM4699 5993v86h86v-86h-86z" />
    <glyph glyph-name="six" unicode="6" horiz-adv-x="3233" 
d="M1164 431v86h-173v-86h173zM1293 560v259h-43v-130h-43v-129h86zM1250 1034v87h86v-87h-86zM1465 1250v86h87v-86h-87zM1589 862q90 0 153 63t63 152v-53l157 626q-8 24 -27 43q-32 31 -76 31h-593l-172 -690h156v-129h86v-43h129v43h87v-43h37zM1967 1670l13 54h-13v-54
v0zM2414 1670v11h259v43h-275v-54h16zM2974 1681v86h87v-86h-87zM3147 1638v172h172v-172h-172zM3190 1897v86h86v-86h-86zM3406 1897v86h86v-86h-86zM3621 1897v86h86v-86h-86zM2888 2069v86h-86v-86h86zM3190 2112v86h86v-86h-86zM3578 2069v173h173v-173h-173zM3621 2328
v86h86v-86h-86zM3837 2543v87h86v-87h-86zM1681 2759v86h86v-86h-86zM1897 2759v86h86v-86h-86zM3794 2716v172h172v-172h-172zM3837 2974v87h86v-87h-86zM4052 2974v87h87v-87h-87zM4052 3190v86h87v-86h-87zM2398 3395l13 54h-13v-54v0zM1509 3449v43h-216v-43h216z
M603 4052v87h86v-87h-86zM1336 4096v129h-124v-129h124zM819 4268v86h86v-86h-86zM2543 4268v86h87v-86h-87zM323 0v0q-162 9 -278 126q-125 126 -125 305q0 87 30 161h-3l702 2814h-46v86h67l22 86h-132v173h172v-11l49 194h1q2 5 3 9v0q19 139 122 242q125 124 300 126v86
h172v-129h86v86h87v-86h86v129h172v-86h87v43h86v-43h172v-431h87v345h452v86h22v86h172v-86h43v86h173v-86h21v-1q34 -1 65 -8v52h86v-80q69 -31 127 -89q127 -127 127 -305q0 -87 -30 -162h3l-57 -226h46v-86h-67l-111 -442h-1024l103 411q-8 23 -27 42q-31 32 -76 32
h-431q-89 0 -153 -63q-22 -23 -37 -49l-177 -707h60v-44h86v87h172v-87h87v44h86v-44h711v0q162 -9 278 -126q78 -78 108 -175h67v-259h-216v-345h43v-86h130v-173h-130v-86h87v-86h-87v-129h-121l-186 -744h-1q-1 -5 -3 -10q-19 -138 -122 -241q-126 -126 -305 -126h-1913z
M1250 4484v86h86v-86h-86zM1897 4484v86h86v-86h-86zM3190 4484v86h86v-86h-86zM1422 4440v173h173v-173h-173zM1638 4440v173h172v-173h-172zM2931 4440v173h173v-173h-173zM1034 4699v86h87v-86h-87zM2974 4699v86h87v-86h-87zM3190 4699v86h86v-86h-86zM3621 4699v86h86
v-86h-86zM1422 4656v172h173v-172h-173zM1465 4915v86h87v-86h-87zM3190 4915v86h86v-86h-86zM3363 4872v172h172v-172h-172zM1465 5130v87h87v-87h-87zM1681 5130v87h86v-87h-86zM3621 5130v87h86v-87h-86zM3837 5130v87h86v-87h-86zM4052 5130v87h87v-87h-87zM4268 5130
v87h86v-87h-86zM1897 5346v86h86v-86h-86zM4268 5346v86h86v-86h-86zM4484 5346v86h86v-86h-86zM1638 5303v172h172v-172h-172zM4484 5561v87h86v-87h-86zM2328 5777v86h86v-86h-86zM4699 5777v86h86v-86h-86zM2543 5993v86h87v-86h-87z" />
    <glyph glyph-name="seven" unicode="7" horiz-adv-x="3233" 
d="M1897 1250v86h86v-86h-86zM2112 1465v87h86v-87h-86zM2328 1681v86h86v-86h-86zM2543 1681v86h87v-86h-87zM560 1638v172h172v-172h-172zM819 1897v86h86v-86h-86zM2543 1897v86h87v-86h-87zM2759 1897v86h86v-86h-86zM2285 1853v173h172v-173h-172zM819 2112v86h86v-86
h-86zM2974 2112v86h87v-86h-87zM3190 2112v86h86v-86h-86zM3406 2112v86h86v-86h-86zM3621 2112v86h86v-86h-86zM1034 2328v86h87v-86h-87zM3621 2328v86h86v-86h-86zM1250 2543v87h86v-87h-86zM3837 2543v87h86v-87h-86zM4052 2759v86h87v-86h-87zM4268 2974v87h86v-87h-86
zM3837 3621v86h86v-86h-86zM3837 4052v87h86v-87h-86zM26 0l243 970h3q12 127 60 224q6 12 12 23v162h173v-7q10 2 21 2h162v27h32v21h-172v173h172v43h157v140l1671 1671h-620l-108 -431h-1078l216 862h194v86h-216v259h43v172h173v-172h43v172h172v-86h43v86h173v-86h86
v43h86v-43h345v43h86v-43h130v43h86v-43h129v43h87v-43h172v-129h86v-173h-86v-43h86v-86h130v129h-87v173h87v43h-87v172h173v-86h43v86h172v-86h44v86h172v-86h86v43h86v-43h173l-195 -778q-11 -94 -43 -170q-15 -60 -41 -111q-38 -76 -84 -106q-22 -30 -45 -48h4
l-857 -856h54v-173h-173v167h-43v-167h-172v-43h-43v-173h-60v-43h60v-172h-173v54l-749 -749v27l-243 -970h-1051zM1250 4484v86h86v-86h-86zM2112 4484v86h86v-86h-86zM2328 4484v86h86v-86h-86zM3621 4484v86h86v-86h-86zM3837 4484v86h86v-86h-86zM1422 4440v173h173
v-173h-173zM1638 4440v173h172v-173h-172zM3363 4440v173h172v-173h-172zM1465 4699v86h87v-86h-87zM1681 4699v86h86v-86h-86zM1897 4699v86h86v-86h-86zM3621 4699v86h86v-86h-86zM3837 4699v86h86v-86h-86zM4052 4699v86h87v-86h-87zM1681 4915v86h86v-86h-86zM4268 4915
v86h86v-86h-86zM1853 4872v172h173v-172h-173zM1681 5130v87h86v-87h-86zM1897 5130v87h86v-87h-86zM2112 5130v87h86v-87h-86zM4268 5130v87h86v-87h-86zM2112 5346v86h86v-86h-86zM2328 5346v86h86v-86h-86zM4268 5346v86h86v-86h-86zM4484 5346v86h86v-86h-86zM2328 5561
v87h86v-87h-86zM2543 5561v87h87v-87h-87zM4915 5561v87h86v-87h-86zM2543 5777v86h87v-86h-87zM5130 5777v86h87v-86h-87zM2759 5993v86h86v-86h-86zM5130 5993v86h87v-86h-87zM3190 6208v86h86v-86h-86zM5130 6208v86h87v-86h-87zM5346 6208v86h86v-86h-86z" />
    <glyph glyph-name="eight" unicode="8" horiz-adv-x="3233" 
d="M2759 1034v87h86v-87h-86zM1250 1250v86h86v-86h-86zM1465 1250v86h87v-86h-87zM2974 1250v86h87v-86h-87zM2974 1465v87h87v-87h-87zM1589 862q90 0 153 63q23 22 37 48l174 697q-7 12 -18 23q-32 31 -76 31h-92v-43h-86v43h-253q-90 0 -153 -63q-22 -22 -37 -48
l-174 -697q7 -12 18 -23q32 -31 76 -31h431zM3190 1681v86h86v-86h-86zM3190 1897v86h86v-86h-86zM3621 2112v86h86v-86h-86zM3190 2759v86h86v-86h-86zM4052 2759v86h87v-86h-87zM1897 2974v87h86v-87h-86zM3406 2974v87h86v-87h-86zM3190 3190v86h86v-86h-86zM2021 2586
q89 0 152 63q23 23 37 49l174 696q-7 12 -18 23q-31 32 -76 32h-431q-89 0 -153 -63q-22 -23 -37 -49l-174 -696q7 -12 18 -23q32 -32 76 -32h92v44h86v-44h254zM3837 3406v86h86v-86h-86zM3837 3621v86h86v-86h-86zM4052 3621v86h87v-86h-87zM3837 3837v86h86v-86h-86z
M1379 3880v86h-167v-86h38v43h86v-43h43zM4009 3794v172h173v-172h-173zM1465 4052v87h87v-87h-87zM3621 4052v87h86v-87h-86zM4052 4052v87h87v-87h-87zM4268 4052v87h86v-87h-86zM3837 4268v86h86v-86h-86zM4052 4268v86h87v-86h-87zM4268 4268v86h86v-86h-86zM1465 4484
v86h87v-86h-87zM4052 4484v86h87v-86h-87zM4268 4484v86h86v-86h-86zM323 0v0q-162 9 -278 126q-125 126 -125 305q0 87 30 161h-3l295 1186h1q14 48 35 89q22 45 48 74q28 47 69 88q127 126 305 126h162v1v0q-162 9 -278 126q-126 126 -126 304q0 87 30 162h-3l296 1186h1
q2 5 3 9q19 139 122 242q125 124 300 126v86h172v-172h43v-216h216v130h-86v86h-130v172h130v87h129v86h86v-86h86v129h173v-173h-129v-129h1228v-1q162 -9 278 -125q23 -23 41 -46h48v-80q38 -82 38 -179q0 -69 -19 -129h24v-130h43v130h173v-173h-130v-302h-129v-86h-86
v86h-130v43h-172v-172h43v-43h172v-173h-172v-43h-129v-140h215q0 -179 -63 -305q-22 -44 -48 -73q-28 -47 -69 -88q-126 -127 -305 -127h-162v0q162 -9 278 -126q111 -111 125 -262h72v-86h-72q-14 -151 -125 -262l-8 -8v-172h-140v-75h-130v-43h44v-87h-44v-129h44v-86
h-87v43h-43v-54h216v140h172v-172h-121l-100 -399h-1q-1 -5 -3 -10q-19 -138 -122 -241q-126 -126 -305 -126h-1913zM1681 4699v86h86v-86h-86zM4484 4699v86h86v-86h-86zM1853 4656v172h173v-172h-173zM1897 4915v86h86v-86h-86zM2112 4915v86h86v-86h-86zM4484 4915v86h86
v-86h-86zM2112 5130v87h86v-87h-86zM2328 5130v87h86v-87h-86zM4484 5130v87h86v-87h-86zM4699 5130v87h86v-87h-86zM2328 5346v86h86v-86h-86zM2543 5346v86h87v-86h-87zM4699 5346v86h86v-86h-86zM2543 5561v87h87v-87h-87zM2759 5561v87h86v-87h-86zM4915 5561v87h86v-87
h-86zM2974 5777v86h87v-86h-87zM3190 5993v86h86v-86h-86zM5346 5993v86h86v-86h-86z" />
    <glyph glyph-name="nine" unicode="9" horiz-adv-x="3233" 
d="M1050 862v54l-13 -54h13zM560 862v86h129v43h-129v173h129v43h-129v-43h-43v-173h-59v-75h-189v-54h291zM1250 1250v86h86v-86h-86zM819 1465v87h86v-87h-86zM1034 1465v87h87v-87h-87zM1250 1465v87h86v-87h-86zM560 1422v173h172v-173h-172zM2931 1422v173h173v-173
h-173zM2974 1681v86h87v-86h-87zM3190 1681v86h86v-86h-86zM3190 1897v86h86v-86h-86zM3147 2069v173h172v-173h-172zM3363 2069v173h172v-173h-172zM3190 2328v86h86v-86h-86zM3406 2328v86h86v-86h-86zM3621 2328v86h86v-86h-86zM3837 2543v87h86v-87h-86zM1482 2586v54
l-14 -54h14zM3578 2500v173h173v-173h-173zM2112 2759v86h86v-86h-86zM3837 2759v86h86v-86h-86zM1897 2974v87h86v-87h-86zM4268 3190v86h86v-86h-86zM2026 2586v130h189l169 678q-7 12 -18 23q-31 32 -76 32h-431q-89 0 -153 -63q-63 -64 -63 -153v54l-156 -626
q7 -24 26 -43q32 -32 76 -32h308v44h86v-44h43zM4484 3406v86h86v-86h-86zM4484 3621v86h86v-86h-86zM4699 4052v87h86v-87h-86zM2328 4268v86h86v-86h-86zM1681 4484v86h86v-86h-86zM2543 4484v86h87v-86h-87zM2974 4484v86h87v-86h-87zM3837 4484v86h86v-86h-86z
M5130 4484v86h87v-86h-87zM323 0v0q-162 9 -278 126q-125 126 -125 305q0 87 30 161h-3l187 755h167v75h259v-43h172v-129h87v86h16v11h156v32h173v-172h-41l-67 -271q7 -24 26 -43q32 -31 76 -31h431q90 0 153 63q23 22 37 48l188 751h-415v-43h-87v43h-129v-43h-86v43
h-496v1q-162 9 -278 125q-126 127 -126 305q0 87 30 162h-3l404 1617h1q2 5 3 9q19 139 122 242q127 126 305 126h38v43h86v-43h129v43h87v-43h517v86h173v-129h86v-129h86v-87h-86v-129h-173v-43h173v43h86v129h129v87h43v129h-43v86h87v-43h43v129h43v173h172v-173h43v-43
h173v-86h21v-1q162 -9 278 -125q127 -127 127 -305q0 -87 -30 -162h3l-399 -1595v-54h-130v-43h130v-173h-173v-43h-129v-43h43v-86h-43v-129h43v-87h-86v44h-129v-44h-44v-86h87v-140h210l-216 -862h-1q-1 -5 -3 -10q-19 -138 -122 -241q-126 -126 -305 -126h-1913z
M3147 4440v173h172v-173h-172zM2328 4699v86h86v-86h-86zM3406 4699v86h86v-86h-86zM3147 4656v172h172v-172h-172zM3406 4915v86h86v-86h-86zM3578 4872v172h173v-172h-173zM3621 5130v87h86v-87h-86zM3621 5346v86h86v-86h-86zM3837 5346v86h86v-86h-86zM4052 5346v86h87
v-86h-87zM4484 5346v86h86v-86h-86zM4052 5561v87h87v-87h-87zM4268 5561v87h86v-87h-86zM4699 5561v87h86v-87h-86zM4268 5777v86h86v-86h-86zM4484 5777v86h86v-86h-86zM4484 5993v86h86v-86h-86zM4699 5993v86h86v-86h-86zM5130 6208v86h87v-86h-87zM5561 6639v87h87v-87
h-87z" />
    <glyph glyph-name="at" unicode="@" horiz-adv-x="3664" 
d="M1724 -53v268h-754l-108 -215h-1077l2155 4311h970v-4311h-970l593 592l-593 593v970l-593 -1185h377v269l647 -647l-647 -645v0z" />
    <glyph glyph-name="A" unicode="A" horiz-adv-x="3557" 
d="M3190 819v86h86v-86h-86zM3190 1250v86h86v-86h-86zM3147 2285v172h172v-172h-172zM3363 2931v173h172v-173h-172zM1465 3621v86h87v-86h-87zM2673 3621v86h-130v-86h130zM3363 3578v173h172v-173h-172zM2414 3837v43h-43v-43h43zM3406 3837v86h86v-86h-86zM1681 4268v86
h86v-86h-86zM3837 4268v86h86v-86h-86zM3319 4397v43h-172v-43h172zM3406 4699v86h86v-86h-86zM3621 4699v86h86v-86h-86zM2328 4915v86h86v-86h-86zM4052 4915v86h87v-86h-87zM2716 4872v172h172v-172h-172zM1940 -53v268h-970l-108 -215h-1077l2349 4699h-22v86h86v-43h87
v86h172v-86h129v-43h130v129h172v44h43v172h173v-172h43v-259h172v43h259v-259h173v-172h-173v-43h-215v-216h-44v-172h-172v-43h172v-173h44v-259h172v-172h-172v-43h-44v-173h-129v-258h129v-173h-172v130h-517v344h258v87h-258v43l-44 -86v-432h432v-129h86v-172h-86v-43
h86v-87h21v-2155h-970l593 592l-593 593v1401l-808 -1616h593v269l646 -647l-646 -645v0zM3535 4828v44h-172v172h172v43h259v-259h-259zM2931 5087v173h173v-173h-173zM3147 5087v173h172v-173h-172zM3837 5346v86h86v-86h-86zM3578 5303v172h173v-172h-173zM3406 5561v87
h86v-87h-86zM4484 5561v87h86v-87h-86zM4052 5777v86h87v-86h-87zM4699 6208v86h86v-86h-86z" />
    <glyph glyph-name="B" unicode="B" 
d="M2888 808v97h-86v-97h86zM3147 991v173h172v-173h-172zM3406 1465v87h86v-87h-86zM3621 2759v86h86v-86h-86zM3578 2931v173h173v-173h-173zM4052 3190v86h87v-86h-87zM3794 3363v172h172v-172h-172zM4052 3621v86h87v-86h-87zM1805 862q89 0 153 63q22 22 37 48l187 751
v108q0 45 -31 76q-32 32 -77 32h-350v-216l-647 647l647 647v-216h566q89 0 153 63q22 23 37 49l214 858q0 45 -31 76q-32 32 -77 32h-599l-155 -620l-903 -903l607 -606l-223 -889h492zM3751 3794v172h-130v-172h130zM2845 4311v43h-302v-43h302zM4182 4182v258h258v-258
h-258zM3422 4484v129h-16v-129h16zM4009 4440v173h173v-173h-173zM3751 4613v259h258v-259h-258zM4268 4915v86h86v-86h-86zM4009 4872v172h173v-172h-173zM2026 4828v259h259v-259h-259zM0 0l1185 4742h453v86h172v-86h345v-43h173v-43h86v43h86v129h173v44h-173v172h173
v43h474v-43h172v-172h259v-158q82 -31 149 -98q126 -126 126 -305h-232v-86h388v-43h173v-173h-173v-258h-215v-216h-173v-140h16l-16 -65v-54h-13l-132 -528h-2q-14 -47 -35 -89q-22 -45 -47 -73q-28 -47 -70 -89q-126 -126 -304 -126h-189q179 0 305 -126
q126 -127 126 -305q0 -87 -30 -162h3l-135 -539h-124v-118h87v-87h-87v-43h173v-259h-175l-89 -355h-1q-2 -5 -3 -10q-19 -138 -122 -241q-127 -126 -305 -126h-2452zM2543 5130v87h87v-87h-87zM3147 5087v173h172v-173h-172zM3578 5087v173h173v-173h-173zM4009 5087v173
h173v-173h-173zM3621 5346v86h86v-86h-86zM2931 5303v172h173v-172h-173zM3794 5303v172h172v-172h-172zM4225 5303v172h172v-172h-172zM3406 5561v87h86v-87h-86zM4699 5561v87h86v-87h-86zM4225 5518v173h172v-173h-172zM4268 5777v86h86v-86h-86zM4656 5949v173h172v-173
h-172zM5087 5949v173h173v-173h-173zM4699 6424v86h86v-86h-86zM5130 6424v86h87v-86h-87zM5777 6639v87h86v-87h-86z" />
    <glyph glyph-name="C" unicode="C" horiz-adv-x="3233" 
d="M1897 1465v87h86v-87h-86zM2759 1465v87h86v-87h-86zM2673 1595v258h258v-258h-258zM2543 1897v86h87v-86h-87zM3190 1897v86h86v-86h-86zM2931 1853v173h173v-173h-173zM3363 2069v173h172v-173h-172zM1465 2328v86h87v-86h-87zM1681 2328v86h86v-86h-86zM1681 2543v87
h86v-87h-86zM3837 2543v87h86v-87h-86zM1897 2759v86h86v-86h-86zM2112 2759v86h86v-86h-86zM2328 2974v87h86v-87h-86zM3276 4257v11h216v43h-259v-54h43zM4268 4268v86h86v-86h-86zM3206 4311v259h-16v-216h-560v216h-87v-216h-388v-43h1051zM4440 4440v173h173v-173h-173
zM4268 4699v86h86v-86h-86zM4656 4656v172h172v-172h-172zM3535 4828v259h259v-259h-259zM3837 5130v87h86v-87h-86zM4009 5087v173h173v-173h-173zM323 0v0q-162 9 -278 126q-125 126 -125 305q0 87 30 161h-3l942 3773h1q14 48 35 89q22 45 48 74q28 47 69 88
q126 126 305 126h636v173h431v172h-129v173h172v-130h216v173h258v-259h-172v-345h86v216h259v172h43v173h172v-173h44v-172h43v-220q56 -30 105 -79q60 -60 92 -132h104v215h259v173h259v-259h-173v-259h-215v-302h172v130h173v-173h-130v-302h-345v-86h-86v86h-121
l-54 -215h46v-86h-67l-3 -11h-1024l121 485h-714l-426 -1703v-65h43v130h173v-173h-130v-86h87v-86h-87v-130h-344v259h-44v-302h189l-216 -862h715l94 377h339v11h-86v86h86v129h345v-226h340l-216 -862h-1q-1 -5 -3 -10q-19 -138 -122 -241q-126 -126 -305 -126h-1913z
M2759 5346v86h86v-86h-86zM4484 5346v86h86v-86h-86zM3578 5303v172h173v-172h-173zM4268 5561v87h86v-87h-86zM2931 5518v173h173v-173h-173zM4656 5518v173h172v-173h-172zM3794 5734v172h172v-172h-172zM4699 5993v86h86v-86h-86zM5130 6208v86h87v-86h-87zM5346 6208v86
h86v-86h-86zM5777 6208v86h86v-86h-86z" />
    <glyph glyph-name="D" unicode="D" 
d="M3190 1465v87h86v-87h-86zM3406 1681v86h86v-86h-86zM3104 1853v173h-86v-173h86zM1681 2112v86h86v-86h-86zM3363 2069v173h172v-173h-172zM1681 2328v86h86v-86h-86zM3837 2328v86h86v-86h-86zM1897 2543v87h86v-87h-86zM3837 2543v87h86v-87h-86zM4052 2543v87h87v-87
h-87zM4268 2759v86h86v-86h-86zM3190 2802v43h86v119h-70v54h-232v-173h-145v-43h145v43h87v-43h129zM4052 3190v86h87v-86h-87zM1805 862q89 0 153 63q22 22 37 48l699 2799q0 45 -31 76q-32 32 -77 32h-565l-529 -2113h60v-86h-81l-205 -819h539zM4440 4009v173h173v-173
h-173zM4699 4268v86h86v-86h-86zM2845 4311v43h-647v216h-43v-259h690zM4009 4440v173h173v-173h-173zM1034 4699v86h87v-86h-87zM4268 4699v86h86v-86h-86zM5130 4699v86h87v-86h-87zM2630 4699v129h-87v-129h87zM4009 4656v172h173v-172h-173zM3621 4915v86h86v-86h-86z
M4484 4915v86h86v-86h-86zM1638 4872v172h172v-172h-172zM2845 4915v129h-129v-129h129zM3363 4872v172h172v-172h-172zM1897 5130v87h86v-87h-86zM3621 5130v87h86v-87h-86zM4484 5130v87h86v-87h-86zM3363 5087v173h172v-173h-172zM2543 5561v87h87v-87h-87zM3621 5561v87
h86v-87h-86zM0 0l1185 4742h237v86h173v-86h43v86h172v-86h173v173h86v129h173v-129h215v172h-172v173h172v43h474v-173h216v130h-43v43h-173v172h173v43h215v216h259v-259h-215v-215h-44v-173h-129v-43h129v-172h-129v-87h-216v-86h17v43h372v86h172v-100q108 -28 192 -112
q39 -40 67 -85v82h172v-173h-132q7 -21 11 -43h121v-172h-121q-5 -24 -12 -47v0l-82 -330v-54h-14l-97 -388h154v129h129v43h-129v173h129v43h-129v172h172v-129h216v172h258v-258h-172v-259h-129v-86h-87v86h-86v-129h-129v-87h86v-86h-86v-345h-216v-431h-229l-78 -313
h-167v-32h216v-259h-216v-140h59l-323 -1293h-1q-2 -5 -3 -10q-19 -138 -122 -241q-127 -126 -305 -126h-2452zM3837 5777v86h86v-86h-86zM3578 5734v172h173v-172h-173zM4052 5993v86h87v-86h-87zM4052 6208v86h87v-86h-87zM4268 6208v86h86v-86h-86zM4699 6208v86h86v-86
h-86z" />
    <glyph glyph-name="E" unicode="E" horiz-adv-x="2802" 
d="M2457 1034v130h-172v-130h172zM1379 948v259h259v-259h-259zM2759 1250v86h86v-86h-86zM2543 1465v87h87v-87h-87zM2931 1422v173h173v-173h-173zM3147 1638v172h172v-172h-172zM2328 1897v86h86v-86h-86zM2759 2112v86h86v-86h-86zM3621 2112v86h86v-86h-86zM3621 2328
v86h86v-86h-86zM2974 2543v87h87v-87h-87zM2931 2716v172h173v-172h-173zM3190 2974v87h86v-87h-86zM3621 3190v86h86v-86h-86zM2716 3147v172h172v-172h-172zM2931 3363v172h173v-172h-173zM3190 3621v86h86v-86h-86zM3406 3837v86h86v-86h-86zM3621 3837v86h86v-86h-86z
M2586 4311v43h-431v-43h431zM3406 4699v86h86v-86h-86zM2586 4699v43h302v86h-345v-129h43zM2543 5130v87h87v-87h-87zM2974 5130v87h87v-87h-87zM3837 5130v87h86v-87h-86zM3363 5087v173h172v-173h-172zM1810 5044v259h259v-259h-259zM323 0v0q-162 9 -278 126
q-125 126 -125 305q0 87 30 161h-3l942 3773h1q14 48 35 89q22 45 48 74q28 47 69 88q56 56 122 87v169h258v-259h-75v-86h118v43h87v129h129v86h86v130h302v129h173v-129h86v86h86v-86h43v172h216v216h258v-431h173v215h259v-259h-216v-86h194l-216 -862h-1320l-183 -733
h231v-259h-258v151l-59 -237h80v-216h65v44h86v129h130v86h86v129h259v173h474v-259h-173v-86h97l-151 -302h184v216h258v-259h-43v-172h-172v-43h-259v43h-75l-22 -43h97v-173h-172v22l-76 -151h-11v-43h-86v43h-792l-270 -1078h588v86h129v86h130v87h86v-87h43v173h216
v215h258v-215h216v-259h-173v-259h-215v-215h-345v215h-43v-258h323l-108 -431h-1832zM2931 5303v172h173v-172h-173zM3578 5303v172h173v-172h-173zM3190 5561v87h86v-87h-86zM3837 5561v87h86v-87h-86zM4052 5561v87h87v-87h-87zM4268 5777v86h86v-86h-86zM4484 5777v86
h86v-86h-86zM3621 5993v86h86v-86h-86z" />
    <glyph glyph-name="F" unicode="F" horiz-adv-x="2775" 
d="M1465 1250v86h87v-86h-87zM1897 1681v86h86v-86h-86zM2931 2285v172h173v-172h-173zM2112 2759v86h86v-86h-86zM3190 2759v86h86v-86h-86zM3406 2759v86h86v-86h-86zM2069 2931v173h173v-173h-173zM2328 3190v86h86v-86h-86zM2716 3147v172h172v-172h-172zM3363 3147v172
h172v-172h-172zM3363 3363v172h172v-172h-172zM3578 3363v172h173v-172h-173zM2974 3621v86h87v-86h-87zM4009 3578v173h173v-173h-173zM4699 4052v87h86v-87h-86zM3621 4268v86h86v-86h-86zM3837 4484v86h86v-86h-86zM5130 4484v86h87v-86h-87zM2759 4699v86h86v-86h-86z
M4052 4699v86h87v-86h-87zM2759 4915v86h86v-86h-86zM4052 4915v86h87v-86h-87zM2500 5087v173h173v-173h-173zM2931 5087v173h173v-173h-173zM2759 5346v86h86v-86h-86zM3621 5346v86h86v-86h-86zM3837 5346v86h86v-86h-86zM3363 5303v172h172v-172h-172zM26 0v53
l1078 4312h2q14 48 35 89q22 45 47 74q28 47 70 88q126 126 304 126h335v43h86v-43h86v86h173v-86h129v-43h172v-129h87v-86h-87v-130h-172v-43h172v43h87v130h129v86h86v129h129v86h87v130h431v172h-129v173h172v-130h86v87h86v-87h44v173h215v215h259v-258h-216v-216h-43
v-172h-129v-87h86v-86h-86v-129h-216v-216h-431v-43h259l-108 -431h-496v-43h-86v43h-738l-270 -1078h81v-216h65v44h86v-44h129v44h86v-44h11v216h119v43h86v-43h216v172h258v173h259v172h172v-172h44v-259h-216v-215h-173v-43h-204l-65 -130h11v-258h-140l-22 -44h76v-86
h-87v65l-118 -237h-227v-43h-86v43h-576l-33 -130h92v-172h-135l-183 -733h59v-86h-81l-205 -819h-1024zM4225 5518v173h172v-173h-172zM2974 5777v86h87v-86h-87zM4484 5777v86h86v-86h-86zM4656 5734v172h172v-172h-172zM3190 5993v86h86v-86h-86zM5561 6208v86h87v-86
h-87z" />
    <glyph glyph-name="G" unicode="G" horiz-adv-x="3233" 
d="M1250 1034v87h86v-87h-86zM1465 1250v86h87v-86h-87zM2775 1670v227h-16v43h-129v-43h-87v43h-145v-54h188v-216h189zM3190 1897v86h86v-86h-86zM1897 2112v86h86v-86h-86zM3621 2543v87h86v-87h-86zM3794 2716v172h172v-172h-172zM2069 2931v173h173v-173h-173z
M2328 3190v86h86v-86h-86zM3837 3190v86h86v-86h-86zM4009 3147v172h173v-172h-173zM4268 3406v86h86v-86h-86zM4484 3621v86h86v-86h-86zM4699 4052v87h86v-87h-86zM4915 4484v86h86v-86h-86zM2586 4311v86h-344v216h-87v-302h431zM4009 4440v173h173v-173h-173zM4268 4699
v86h86v-86h-86zM1465 4915v86h87v-86h-87zM2112 4915v86h86v-86h-86zM4484 4915v86h86v-86h-86zM1897 5130v87h86v-87h-86zM2543 5130v87h87v-87h-87zM2328 5346v86h86v-86h-86zM2759 5346v86h86v-86h-86zM3190 5346v86h86v-86h-86zM4484 5346v86h86v-86h-86zM323 0v0
q-162 9 -278 126q-125 126 -125 305q0 87 30 161h-3l942 3773h1q14 48 35 89q22 45 48 74q28 47 69 88q126 126 305 126h334v43h86v-43h43v130h-172v172h172v43h216v216h259v-259h-216v-172h604v215h258v-259h-215v-86h258v43h87v-43h172v0q69 -4 130 -28v71h-302v302h-130
v173h173v-130h86v87h86v-87h43v173h216v215h259v-258h-216v-216h-172v-216h129v-172h-69q23 -18 45 -40q126 -126 126 -305h-404v-54h43v11h475v172h258v-258h-172v-475h-337l-78 -312h-1024l121 485h-493v-86h-173v86h-43v-86h-27l-711 -2846h92v-86h86v43h86v-43h302v86
h148l306 1225l-314 629h679v129h259v-129h215v86h130v43h-130v173h173v-130h302v87h86v-87h43v173h259v-259h-173v-258h-391l-21 -87h197v-345h-87v-129h-172v129h-86v-86h-87v86h-129v119h-16v-119h16v-86h-16v-11h269l-62 -248h111v-258h-175l-305 -1218h-1q-1 -5 -3 -10
q-19 -138 -122 -241q-126 -126 -305 -126h-1913zM2543 5561v87h87v-87h-87zM3837 5561v87h86v-87h-86zM4699 5561v87h86v-87h-86zM2285 5518v173h172v-173h-172zM2974 5777v86h87v-86h-87zM4052 5777v86h87v-86h-87zM3190 5993v86h86v-86h-86zM5130 5993v86h87v-86h-87z
M5777 6208v86h86v-86h-86zM3406 6424v86h86v-86h-86z" />
    <glyph glyph-name="H" unicode="H" 
d="M3621 2543v87h86v-87h-86zM3621 2759v86h86v-86h-86zM3794 2716v172h172v-172h-172zM3837 2974v87h86v-87h-86zM4052 3190v86h87v-86h-87zM3794 3363v172h172v-172h-172zM2112 3837v86h86v-86h-86zM3503 3880v86h-54v-86h54zM3794 3794v172h172v-172h-172zM2328 4052v87
h86v-87h-86zM4052 4052v87h87v-87h-87zM4268 4052v87h86v-87h-86zM4268 4268v86h86v-86h-86zM4484 4484v86h86v-86h-86zM4915 4699v86h86v-86h-86zM1724 0l377 1509l876 875l-525 526l458 1832h194v130h474v-44h173v-86h86v43h86v-43h65l-108 -431h-86v-129h172v-173h-172
v-43h-43v-86h21l-32 -129h11v-173h-54l-33 -129h-323v-86h237v-44h173v-172h-173v-43h-237v-86h216l-33 -130h11v-172h-54l-11 -43h65v-173h-108l-11 -43h119v-172h-162l-571 -2285h-1078zM1465 4915v86h87v-86h-87zM4052 4915v86h87v-86h-87zM0 0l1185 4742h324v-215h86
v345h43v172h172v-172h43v-44h173v-86h86v43h86v-43h65l-108 -431h-86v-345h-259v216h-86v-302h324l-270 -1078h377v216l647 -647l-647 -647v216h-593l-485 -1940h-1077zM3794 4872v172h172v-172h-172zM2026 4828v44h-173v172h173v43h259v-259h-259zM2543 5130v87h87v-87h-87
zM4268 5130v87h86v-87h-86zM4699 5130v87h86v-87h-86zM2285 5087v173h172v-173h-172zM4009 5087v173h173v-173h-173zM4440 5087v173h173v-173h-173zM1897 5346v86h86v-86h-86zM2974 5346v86h87v-86h-87zM4699 5346v86h86v-86h-86zM2500 5303v172h173v-172h-173zM2716 5303
v172h172v-172h-172zM4440 5303v172h173v-172h-173zM4872 5303v172h172v-172h-172zM2974 5561v87h87v-87h-87zM4915 5561v87h86v-87h-86zM5130 5561v87h87v-87h-87zM2974 5777v86h87v-86h-87zM3190 5777v86h86v-86h-86zM5130 5777v86h87v-86h-87zM3190 5993v86h86v-86h-86z
M5561 6208v86h87v-86h-87zM3621 6424v86h86v-86h-86z" />
    <glyph glyph-name="I" unicode="I" horiz-adv-x="1724" 
d="M1897 2974v87h86v-87h-86zM2112 3190v86h86v-86h-86zM2026 3363v215h43v173h-43v43l-86 -345h-87v-86h173zM2328 3837v86h86v-86h-86zM2543 4268v86h87v-86h-87zM2543 4484v86h87v-86h-87zM2759 4699v86h86v-86h-86zM0 0l1185 4742h453v86h172v-86h130v-172h43v-86h-43
v-87h86v259h43v172h173v-172h43v172h172v-172h43v-259h-215v-215h-162l-43 -173h205v-258h-43v-173h43v-259h-216v-215h-474v215h-86v-258h43v-43h129v43h86v-43h65l-86 -345h64v-173h-107l-22 -86h86v-86h-86v86l-604 -2414h-1077zM1465 4915v86h87v-86h-87zM2285 4872v172
h172v-172h-172zM2500 4872v172h173v-172h-173zM1810 4828v259h259v-259h-259zM1681 5130v87h86v-87h-86zM2543 5130v87h87v-87h-87zM2759 5130v87h86v-87h-86zM2069 5087v173h173v-173h-173zM2759 5346v86h86v-86h-86zM2974 5346v86h87v-86h-87zM2069 5303v172h173v-172
h-173zM2112 5561v87h86v-87h-86zM2974 5561v87h87v-87h-87zM3406 5561v87h86v-87h-86zM2328 5777v86h86v-86h-86zM3406 5777v86h86v-86h-86zM3621 5777v86h86v-86h-86zM4052 5777v86h87v-86h-87zM4268 6208v86h86v-86h-86z" />
    <glyph glyph-name="J" unicode="J" horiz-adv-x="3018" 
d="M388 1034v87h86v-87h-86zM1034 1034v87h87v-87h-87zM819 1250v86h86v-86h-86zM1034 1250v86h87v-86h-87zM560 1207v172h172v-172h-172zM819 1465v87h86v-87h-86zM991 1422v173h173v-173h-173zM1034 1681v86h87v-86h-87zM1250 1681v86h86v-86h-86zM1250 1897v86h86v-86
h-86zM1250 2112v86h86v-86h-86zM1250 2328v86h86v-86h-86zM2974 2328v86h87v-86h-87zM3190 2328v86h86v-86h-86zM1465 2543v87h87v-87h-87zM3190 2543v87h86v-87h-86zM3406 2759v86h86v-86h-86zM3147 2716v172h172v-172h-172zM3621 2974v87h86v-87h-86zM1465 3190v86h87v-86
h-87zM3621 3190v86h86v-86h-86zM3837 3190v86h86v-86h-86zM3837 3621v86h86v-86h-86zM4052 3621v86h87v-86h-87zM1897 3837v86h86v-86h-86zM4052 3837v86h87v-86h-87zM2630 3880v172h129v87h43v129h-43v86h43v216h-43v-216h-302v-43h156v-431h17zM4052 4484v86h87v-86h-87z
M2543 4915v86h87v-86h-87zM26 0l216 862h146v43h86v129h129v87h86v-87h43v173h259v-259h-172v-43h86v-86h-86v-130h-92v-86h92v86h86v130h172v43h130v86h172v-86h157l840 3363h-91v172h129v302h129v86h87v130h129v86h86v-86h129v-130h87v-43h129v43h86v-86h-43v-11h297
l-494 -1972h111v-259h-259v76h-86v-119h43v-86h-86v43h-173v-270h87v184h474v-259h-283l-412 -1649h-2l-2 -10q-19 -138 -123 -241q-126 -126 -304 -126h-1995zM2974 4915v86h87v-86h-87zM3190 4915v86h86v-86h-86zM2759 5130v87h86v-87h-86zM3190 5130v87h86v-87h-86z
M2888 5044v259h259v-259h-259zM2974 5346v86h87v-86h-87zM3190 5346v86h86v-86h-86zM3406 5346v86h86v-86h-86zM3406 5561v87h86v-87h-86zM3621 5561v87h86v-87h-86zM3837 5777v86h86v-86h-86zM3837 5993v86h86v-86h-86z" />
    <glyph glyph-name="K" unicode="K" 
d="M2931 808v140h-24q-6 -75 -25 -140h49zM2888 1024v183h216v54l-6 -22h-296v-215h86zM3406 1465v87h86v-87h-86zM3621 1681v86h86v-86h-86zM3837 1681v86h86v-86h-86zM2112 2974v87h86v-87h-86zM2328 2974v87h86v-87h-86zM3621 2974v87h86v-87h-86zM2328 3190v86h86v-86
h-86zM3837 3406v86h86v-86h-86zM4268 3621v86h86v-86h-86zM4009 3578v173h173v-173h-173zM2328 3837v86h86v-86h-86zM2543 3837v86h87v-86h-87zM3837 3837v86h86v-86h-86zM4268 3837v86h86v-86h-86zM4484 3837v86h86v-86h-86zM3837 4052v87h86v-87h-86zM1681 4699v86h86v-86
h-86zM1897 4699v86h86v-86h-86zM2328 4699v86h86v-86h-86zM3837 4699v86h86v-86h-86zM4052 4699v86h87v-86h-87zM0 0l1185 4742h237v86h173v-172h-86v-129h172v43h86v-86h-43v-119h162v323h323l-83 -334h72v-86h-86v32l-253 -1013l-930 -930l607 -606l-432 -1725v-26h-1104z
M1751 0l431 1724v108q0 45 -31 76q-32 32 -77 32h-91v-43h-86v43h-173v-173h43v-86h-86v86l-604 604l647 647v-216h728l140 561h-92v172h173v-86h129v129h-86v173h86v129h-81l216 862h382v130h259v-44h173v-140h210l-19 -75h24v-173h-67l-127 -506h-54v-108h-54v-119h43v-86
h-86v43h-129v-43h-43v-11h161v-75h141v-172h-122l-10 -44h132v-172h-173v11l-102 -410h-2q-14 -47 -35 -89q-22 -45 -47 -73q-28 -47 -70 -89q-126 -126 -304 -126h-189q179 0 305 -126q126 -127 126 -305q0 -87 -30 -162h3l-3 -11h46v-86h-67l-65 -259h219v-258h-216v-216
h-43v-172h-121l-181 -723v-53h-1051zM1465 4915v86h87v-86h-87zM4052 4915v86h87v-86h-87zM1810 4828v44h-172v172h172v43h259v-43h173v-172h-173v-44h-259zM3751 4828v259h258v-259h-258zM1897 5130v87h86v-87h-86zM2543 5130v87h87v-87h-87zM3406 5130v87h86v-87h-86z
M4268 5130v87h86v-87h-86zM2069 5087v173h173v-173h-173zM4009 5087v173h173v-173h-173zM3837 5346v86h86v-86h-86zM4268 5346v86h86v-86h-86zM2069 5303v172h173v-172h-173zM2285 5303v172h172v-172h-172zM2500 5303v172h173v-172h-173zM2759 5561v87h86v-87h-86z
M4699 5561v87h86v-87h-86zM2500 5518v173h173v-173h-173zM4440 5518v173h173v-173h-173zM2759 5777v86h86v-86h-86zM4915 5777v86h86v-86h-86zM5130 5777v86h87v-86h-87zM2931 5734v172h173v-172h-173zM2974 5993v86h87v-86h-87zM3190 5993v86h86v-86h-86zM3190 6208v86h86
v-86h-86zM3406 6208v86h86v-86h-86zM3621 6424v86h86v-86h-86z" />
    <glyph glyph-name="L" unicode="L" horiz-adv-x="3395" 
d="M2974 388v86h87v-86h-87zM2026 431v86h-173v-86h173zM1595 560v216h-86v-216h86zM1422 862v43h-86v-43h86zM1250 862v43h-129v216h-44v-259h173zM1681 1034v87h86v-87h-86zM1897 1034v87h86v-87h-86zM2328 1034v87h86v-87h-86zM2759 1034v87h86v-87h-86zM2974 1034v87h87
v-87h-87zM2500 991v173h173v-173h-173zM3147 991v173h172v-173h-172zM2285 1207v172h172v-172h-172zM3147 1207v172h172v-172h-172zM3363 1207v172h172v-172h-172zM3406 1465v87h86v-87h-86zM1638 1422v173h172v-173h-172zM3578 1422v173h173v-173h-173zM1681 1681v86h86
v-86h-86zM1897 1681v86h86v-86h-86zM3621 1681v86h86v-86h-86zM3837 1681v86h86v-86h-86zM2112 1897v86h86v-86h-86zM3837 1897v86h86v-86h-86zM2112 2112v86h86v-86h-86zM3794 2069v173h172v-173h-172zM2328 2328v86h86v-86h-86zM3837 2328v86h86v-86h-86zM4052 2328v86h87
v-86h-87zM2328 2543v87h86v-87h-86zM4052 2543v87h87v-87h-87zM4052 2759v86h87v-86h-87zM4268 2759v86h86v-86h-86zM2759 2974v87h86v-87h-86zM4268 2974v87h86v-87h-86zM2759 3190v86h86v-86h-86zM3190 3406v86h86v-86h-86zM3406 3621v86h86v-86h-86zM1810 3535v259h259
v-259h-259zM2112 3837v86h86v-86h-86zM3406 3837v86h86v-86h-86zM1940 4311v86h-87v-86h87zM2543 4484v86h87v-86h-87zM2328 4699v86h86v-86h-86zM0 0l1185 4742h324v-302h86v216h43v172h172v-172h43v172h173v-86h43v86h173v-86h21l-21 -86h258v-259h-43v-172h-172v172h-43
v259l-65 -259h65v-172h43v-43h172v-173h-172v-43h-216l-21 -86h-324v-431h173v43h86v-86h-54l-453 -1811h119v-173h-130v-43h130v-172h-130v-43h130v-173h-130v-43h130v43h431v216h259v-259h-216v-172h86v43h-43v86h86v-43h87v86h172v-86h43v86h173v-86h86v43h86v-43h86v86
h173v-172h-108l-11 -44h119v-172h-162l-140 -560h-2802zM2500 4656v172h173v-172h-173zM1681 4915v86h86v-86h-86zM1897 4915v86h86v-86h-86zM2112 4915v86h86v-86h-86zM2285 4872v172h172v-172h-172zM2500 4872v172h173v-172h-173zM2716 4872v172h172v-172h-172zM2716 5087
v173h172v-173h-172zM2931 5087v173h173v-173h-173zM2759 5346v86h86v-86h-86zM2974 5346v86h87v-86h-87zM2974 5561v87h87v-87h-87zM3190 5561v87h86v-87h-86zM3406 5561v87h86v-87h-86zM3621 5777v86h86v-86h-86zM4052 5993v86h87v-86h-87zM4268 5993v86h86v-86h-86z
M4268 6208v86h86v-86h-86z" />
    <glyph glyph-name="M" unicode="M" horiz-adv-x="4527" 
d="M1250 388v86h86v-86h-86zM1465 819v86h87v-86h-87zM4052 1465v87h87v-87h-87zM4268 1465v87h86v-87h-86zM4225 1638v172h172v-172h-172zM4484 1897v86h86v-86h-86zM4484 2112v86h86v-86h-86zM4699 2328v86h86v-86h-86zM4915 2328v86h86v-86h-86zM4699 2543v87h86v-87h-86
zM4915 2543v87h86v-87h-86zM4915 2759v86h86v-86h-86zM5130 2759v86h87v-86h-87zM5346 2974v87h86v-87h-86zM5346 3190v86h86v-86h-86zM5346 3406v86h86v-86h-86zM2112 3621v86h86v-86h-86zM5561 3621v86h87v-86h-87zM2285 3578v173h172v-173h-172zM2328 3837v86h86v-86h-86
zM4915 3837v86h86v-86h-86zM2026 3794v345h-86v-345h86zM2543 4052v87h87v-87h-87zM4484 4052v87h86v-87h-86zM4915 4052v87h86v-87h-86zM4872 4225v172h172v-172h-172zM2543 4484v86h87v-86h-87zM2974 4484v86h87v-86h-87zM6208 4484v86h86v-86h-86zM2112 4699v86h86v-86
h-86zM2759 4699v86h86v-86h-86zM2285 4656v172h172v-172h-172zM2500 4656v172h173v-172h-173zM2112 4915v86h86v-86h-86zM2328 4915v86h86v-86h-86zM2759 4915v86h86v-86h-86zM2974 4915v86h87v-86h-87zM3190 4915v86h86v-86h-86zM4484 4915v86h86v-86h-86zM5130 4915v86h87
v-86h-87zM2500 4872v172h173v-172h-173zM0 0l1185 4742h496v43h86v-43h86v86h173v-129h86v-86h130v-173h-130v-43h130v43h43v173h172v-173h43v-474h-215v-215h-216v-216h-129v-43h43v-43h86v86h173v-86h129l129 -1035l1164 2328h518v130h258v-44h173v-86h43v86h129v44h-129
v172h172v-129h44v129h172v-129h86v-130h87v-86h-87v-129h-86v-130h-172v65l-49 -194h-38v-43h-86v43h-129v-43h-86v-129h-130v-87h-86v-129h86v-43h43v129h259v173h172v-173h44v-258h-54l-334 -1337h86v-86h-86v86l-65 -259h-65v-43h-81l-21 -86h145v-173h-172v65l-49 -194
h-37v-43h-87v-129h-129v-87h-70v-129h70v-43h86v86h173v-86h21l-97 -388h33v-86h-54l-205 -819h-1078l431 1724l-862 -1724h-647l-215 1724l-432 -1724h-1077zM1897 5130v87h86v-87h-86zM2759 5130v87h86v-87h-86zM4699 5130v87h86v-87h-86zM4915 5130v87h86v-87h-86z
M5346 5130v87h86v-87h-86zM3147 5087v173h172v-173h-172zM5087 5087v173h173v-173h-173zM3190 5346v86h86v-86h-86zM3406 5346v86h86v-86h-86zM4915 5346v86h86v-86h-86zM5561 5346v86h87v-86h-87zM3578 5303v172h173v-172h-173zM5303 5303v172h172v-172h-172zM2328 5561v87
h86v-87h-86zM3406 5561v87h86v-87h-86zM4052 5561v87h87v-87h-87zM5561 5561v87h87v-87h-87zM3578 5518v173h173v-173h-173zM3794 5518v173h172v-173h-172zM4052 5777v86h87v-86h-87zM4268 5777v86h86v-86h-86zM5561 5777v86h87v-86h-87zM5777 5777v86h86v-86h-86z
M4268 5993v86h86v-86h-86zM5777 5993v86h86v-86h-86zM5993 5993v86h86v-86h-86zM4268 6208v86h86v-86h-86zM5993 6208v86h86v-86h-86zM6208 6208v86h86v-86h-86zM4268 6424v86h86v-86h-86zM4484 6639v87h86v-87h-86z" />
    <glyph glyph-name="N" unicode="N" 
d="M2716 862v43h-173v-43h173zM2414 1034v87h-43v-87h43zM3190 1034v87h86v-87h-86zM2974 1250v86h87v-86h-87zM3190 1465v87h86v-87h-86zM3406 1465v87h86v-87h-86zM3363 1638v172h172v-172h-172zM3406 1897v86h86v-86h-86zM3621 1897v86h86v-86h-86zM3794 1853v173h172
v-173h-172zM3837 2112v86h86v-86h-86zM4052 2112v86h87v-86h-87zM4268 2328v86h86v-86h-86zM3621 2759v86h86v-86h-86zM2328 3406v86h86v-86h-86zM3794 3363v172h172v-172h-172zM3837 3837v86h86v-86h-86zM2069 4052v87h-86v-87h86zM1767 3923v129h130v87h-130v172h-43v-172
h43v-87h-43v-129h43zM3276 4311v43h-43v-43h43zM3751 4311v43h-44v-43h44zM4052 4484v86h87v-86h-87zM3492 4570v86h-86v-86h86zM2112 4699v86h86v-86h-86zM2285 4656v172h172v-172h-172zM4225 4656v172h172v-172h-172zM0 0l1185 4742h65v43h86v-43h86v86h173v44h258v-44
h173v-172h-119l11 -43h108v-129h43v129h173v-173h-130v-86h86v-86h-86v-86h130v-173h-130v-86h86v-86h-86v-130h-172v-43h215l243 -970l512 2048h323v-43h130v129h172v-129h86v86h86v-86h87v129h172v-172h-129v-86h86v-86h-86v-44h172v-258h-43v-173h-162l-118 -474h65v-172
h-108l-65 -259h173v-173h-173v173l-118 -474h32v-87h-54l-205 -819h-259v-172h87v-87h-87v-129h-129v-86h129v-43h130v215h259v-258h-216v-216h-173v-43h-86v-43h86v43h87v-86h-54l-205 -819h-808l-432 1724h-53l-432 -1724h-1077zM1465 4915v86h87v-86h-87zM1681 4915v86
h86v-86h-86zM2328 4915v86h86v-86h-86zM3837 4915v86h86v-86h-86zM4268 4915v86h86v-86h-86zM2069 4872v172h173v-172h-173zM4009 4656v172h-43v259h259v-259h-43v-172h-173zM1897 5130v87h86v-87h-86zM2543 5130v87h87v-87h-87zM2759 5130v87h86v-87h-86zM4052 5130v87h87
v-87h-87zM2285 5087v173h172v-173h-172zM4225 5087v173h172v-173h-172zM2974 5346v86h87v-86h-87zM4484 5346v86h86v-86h-86zM4225 5303v172h172v-172h-172zM2759 5561v87h86v-87h-86zM3190 5561v87h86v-87h-86zM4484 5561v87h86v-87h-86zM2931 5518v173h173v-173h-173z
M4656 5518v173h172v-173h-172zM3190 5777v86h86v-86h-86zM4699 5777v86h86v-86h-86zM4915 5777v86h86v-86h-86zM3363 5734v172h172v-172h-172zM4915 5993v86h86v-86h-86zM5130 5993v86h87v-86h-87zM3621 6208v86h86v-86h-86zM5130 6208v86h87v-86h-87zM4052 6424v86h87v-86
h-87zM5130 6424v86h87v-86h-87zM5346 6639v87h86v-87h-86z" />
    <glyph glyph-name="O" unicode="O" horiz-adv-x="3206" 
d="M1164 431v86h-302v-86h302zM1293 560v216h-86v-216h86zM1465 1034v87h87v-87h-87zM1422 1207v172h173v-172h-173zM1465 1465v87h87v-87h-87zM1681 1465v87h86v-87h-86zM1897 1897v86h86v-86h-86zM3147 1853v173h172v-173h-172zM3190 2112v86h86v-86h-86zM1897 2328v86h86
v-86h-86zM3190 2328v86h86v-86h-86zM3406 2543v87h86v-87h-86zM3837 2974v87h86v-87h-86zM3406 3406v86h86v-86h-86zM3621 3406v86h86v-86h-86zM3621 3621v86h86v-86h-86zM3363 3610v141h-44v75h-86v-75h86v-141h44zM1751 862l755 3018h-701l-722 -2889h81v216h258v-259h-43
v-86h86v43h87v-43h199zM3837 3837v86h86v-86h-86zM4052 3837v86h87v-86h-87zM3535 4009v23q-10 -12 -21 -23h21zM4052 4052v87h87v-87h-87zM4009 4225v172h173v-172h-173zM4225 4225v172h172v-172h-172zM4052 4484v86h87v-86h-87zM1853 4311v86h173v43h-173v173h173v43h129
v43h-43v86h-86v-129h-173v-43h-43v-173h-32v-43h32v-86h43zM4052 4699v86h87v-86h-87zM4225 4656v172h172v-172h-172zM1681 4915v86h86v-86h-86zM4268 4915v86h86v-86h-86zM4484 4915v86h86v-86h-86zM2974 5130v87h87v-87h-87zM4484 5130v87h86v-87h-86zM4699 5130v87h86
v-87h-86zM323 0v0q-162 9 -278 126q-125 126 -125 305q0 87 30 161h-3l942 3773h1q14 48 35 89q22 45 48 74q28 47 69 88q126 126 305 126h118v43h87v-43h43v130h258v-44h130v302h302v130h172v-173h-129v-86h86v-86h-86v-130h-130v-43h259v130h259v-130h258v43h87v-43h172v0
q162 -9 278 -126q126 -126 126 -305q0 -45 -8 -86h165v-259h-43v-172h-173v-43h-43v-173h-140v-183h27l-396 -1585h78v-172h-173v32h-345v-248h87v216h258v-259h-215v-140h167l-216 -862h-1q-1 -5 -3 -10q-19 -138 -122 -241q-126 -126 -305 -126h-1913zM1897 5346v86h86
v-86h-86zM2112 5346v86h86v-86h-86zM2543 5346v86h87v-86h-87zM3190 5346v86h86v-86h-86zM4699 5346v86h86v-86h-86zM4915 5346v86h86v-86h-86zM2285 5303v172h172v-172h-172zM2328 5561v87h86v-87h-86zM5130 5561v87h87v-87h-87zM2500 5518v173h173v-173h-173zM2543 5777
v86h87v-86h-87zM2759 5777v86h86v-86h-86zM5346 5777v86h86v-86h-86zM2974 5993v86h87v-86h-87zM3190 5993v86h86v-86h-86zM3406 5993v86h86v-86h-86zM2716 5949v173h172v-173h-172zM3406 6208v86h86v-86h-86zM3621 6208v86h86v-86h-86zM3837 6208v86h86v-86h-86zM4052 6208
v86h87v-86h-87zM5993 6208v86h86v-86h-86zM4052 6424v86h87v-86h-87zM4268 6424v86h86v-86h-86z" />
    <glyph glyph-name="P" unicode="P" 
d="M1250 172v86h86v-86h-86zM1465 819v86h87v-86h-87zM1465 1034v87h87v-87h-87zM1897 1250v86h86v-86h-86zM2328 1465v87h86v-87h-86zM1940 2371v172h-27v-172h27zM1897 2974v87h86v-87h-86zM2112 2974v87h86v-87h-86zM3578 2931v173h173v-173h-173zM2112 3190v86h86v-86
h-86zM3837 3406v86h86v-86h-86zM2328 3621v86h86v-86h-86zM3621 3621v86h86v-86h-86zM3837 3837v86h86v-86h-86zM4268 4052v87h86v-87h-86zM4009 4009v173h173v-173h-173zM4484 4268v86h86v-86h-86zM4484 4484v86h86v-86h-86zM4915 4699v86h86v-86h-86zM5130 4699v86h87v-86
h-87zM0 0l1185 4742h22v86h172v-86h43v86h173v-172h-86v-43h86v-129h21v258h65v43h86v-43h302v86h173v-172h-87v-259h87v43h43v173h172v-173h43v173h-43v259h259v-130h43v43h86v-43h86v86h173v-86h43v86h172v-86h87v43h86v-48q134 -20 235 -121q126 -126 126 -305
q0 -27 -3 -54h3l-8 -30q-4 -25 -12 -49v0l-82 -330v-54h-173v-43h-129v-141h161v-75h141v-172h-122l-94 -378v-54h-13l-30 -118v-54h-14l-32 -129h46v-87h-67l-3 -10h-4q-11 -128 -59 -224q-23 -45 -48 -74q-28 -47 -69 -88q-42 -41 -88 -69q-29 -26 -74 -48
q-51 -26 -111 -41q-117 -49 -275 -49h-970v-216l-647 647l647 647v-130h86v-172h-86v-43h86v-87h87v44h43v86h-87v172h173v-86h264q89 0 153 63q22 23 37 49l214 858q0 45 -31 76q-32 32 -77 32h-599l-155 -620l-903 -903l607 -606l-212 -846h12v-86h-34l-32 -130h66v-86
h-86v6l-146 -583v-26h-1104zM1465 4915v86h87v-86h-87zM2974 4915v86h87v-86h-87zM3406 4915v86h86v-86h-86zM1638 4872v172h172v-172h-172zM3147 4872v172h172v-172h-172zM1681 5130v87h86v-87h-86zM1897 5130v87h86v-87h-86zM3837 5130v87h86v-87h-86zM3578 5087v173h173
v-173h-173zM3837 5346v86h86v-86h-86zM4052 5346v86h87v-86h-87zM4268 5346v86h86v-86h-86zM4484 5346v86h86v-86h-86zM1853 5303v172h173v-172h-173zM2112 5561v87h86v-87h-86zM4484 5561v87h86v-87h-86zM4699 5561v87h86v-87h-86zM4915 5561v87h86v-87h-86zM2112 5777v86
h86v-86h-86zM4915 5777v86h86v-86h-86zM5346 5777v86h86v-86h-86zM2328 5993v86h86v-86h-86zM2543 5993v86h87v-86h-87zM5346 5993v86h86v-86h-86zM2759 6208v86h86v-86h-86zM5777 6424v86h86v-86h-86z" />
    <glyph glyph-name="Q" unicode="Q" horiz-adv-x="3233" 
d="M1207 991v173h172v-173h-172zM1422 1207v172h173v-172h-173zM2673 1422v87h-87v-87h87zM1465 1465v87h87v-87h-87zM1465 1681v86h87v-86h-87zM3147 1638v172h172v-172h-172zM3147 1853v173h172v-173h-172zM1897 2112v86h86v-86h-86zM3190 2112v86h86v-86h-86zM3406 2112
v86h86v-86h-86zM3621 2543v87h86v-87h-86zM3837 2543v87h86v-87h-86zM2112 2759v86h86v-86h-86zM3837 2759v86h86v-86h-86zM4268 3190v86h86v-86h-86zM3363 3395v140h-5q-19 -14 -39 -27v-113h44zM3621 3621v86h86v-86h-86zM3837 3837v86h86v-86h-86zM4009 3794v172h173
v-172h-173zM4052 4052v87h87v-87h-87zM4268 4268v86h86v-86h-86zM4484 4268v86h86v-86h-86zM4009 4225v172h173v-172h-173zM3837 4484v86h86v-86h-86zM4699 4484v86h86v-86h-86zM4440 4440v173h173v-173h-173zM2155 4440v216h-86v-216h86zM3837 4699v86h86v-86h-86z
M4656 4656v172h172v-172h-172zM1681 4915v86h86v-86h-86zM2112 4915v86h86v-86h-86zM4699 4915v86h86v-86h-86zM4915 4915v86h86v-86h-86zM1509 -215v215h-1186v0q-162 9 -278 126q-125 126 -125 305q0 87 30 161h-3l841 3371v0q5 26 13 51l88 351h1q14 48 35 89
q22 45 48 74q28 47 69 88q126 126 305 126h75v86h173v-86h86v43h86v-43h11v-431h32v561h43v172h173v-172h43v-44h173v-86h991v0q162 -9 278 -126q95 -95 118 -219h122v-172h-173v86h-345v-54h270v-75h32v-173h43v173h173v-173h43v-258h-216v-216h-43v-172h-121l-399 -1596
h46v-86h-68l-2 -11h-189v-32h129v-43h173v-173h-173v-43h173v-172h-173v-43h-67l-176 -703q-11 -92 -42 -167q-30 -93 -105 -168q-94 -94 -216 -118q-29 -8 -62 -8v0h-215v0h-189l445 444l-526 526l728 2910h-701l-641 -2565v-108h-27l-54 -216h124v-129h302v215l646 -646
l-646 -646v0zM2112 5130v87h86v-87h-86zM4915 5130v87h86v-87h-86zM2543 5346v86h87v-86h-87zM4699 5346v86h86v-86h-86zM4915 5346v86h86v-86h-86zM2285 5303v172h172v-172h-172zM2543 5561v87h87v-87h-87zM4915 5561v87h86v-87h-86zM5130 5561v87h87v-87h-87zM2716 5518
v173h172v-173h-172zM2759 5777v86h86v-86h-86zM5561 5777v86h87v-86h-87zM2759 5993v86h86v-86h-86zM2974 5993v86h87v-86h-87zM3190 5993v86h86v-86h-86zM3406 5993v86h86v-86h-86zM3406 6208v86h86v-86h-86zM3621 6208v86h86v-86h-86zM3837 6208v86h86v-86h-86zM4052 6208
v86h87v-86h-87zM4052 6424v86h87v-86h-87zM5993 6424v86h86v-86h-86z" />
    <glyph glyph-name="R" unicode="R" 
d="M1465 819v86h87v-86h-87zM3190 819v86h86v-86h-86zM3190 1034v87h86v-87h-86zM2457 1131v162h-59v-162h59zM1681 1250v86h86v-86h-86zM3190 1250v86h86v-86h-86zM3406 1250v86h86v-86h-86zM3190 1465v87h86v-87h-86zM3621 1465v87h86v-87h-86zM3837 1465v87h86v-87h-86z
M4052 1465v87h87v-87h-87zM3363 1638v172h172v-172h-172zM3837 1897v86h86v-86h-86zM3363 1853v173h172v-173h-172zM3578 1853v173h173v-173h-173zM3837 2112v86h86v-86h-86zM4052 2112v86h87v-86h-87zM4268 2328v86h86v-86h-86zM4009 2285v172h173v-172h-173zM4268 2543v87
h86v-87h-86zM4268 2759v86h86v-86h-86zM4699 2759v86h86v-86h-86zM4440 2716v172h173v-172h-173zM1897 2974v87h86v-87h-86zM4699 2974v87h86v-87h-86zM2112 3190v86h86v-86h-86zM3621 3190v86h86v-86h-86zM4915 3190v86h86v-86h-86zM3837 3621v86h86v-86h-86zM5130 3621v86
h87v-86h-87zM3395 3449v129h-32v173h59v43h-59v32h-49v54h-81v-129h86v-173h-86v-43h86v-86h76zM5561 4052v87h87v-87h-87zM3707 4257v11h302v86h-158q2 -21 2 -43h-404v-54h258zM1724 4311v86h-86v-86h86zM2586 4311v86h-86v-86h86zM4225 4225v172h172v-172h-172z
M5561 4484v86h87v-86h-87zM4225 4440v173h172v-173h-172zM2328 4699v86h86v-86h-86zM4052 4699v86h87v-86h-87zM4268 4699v86h86v-86h-86zM1465 4915v86h87v-86h-87zM2759 4915v86h86v-86h-86zM4268 4915v86h86v-86h-86zM0 0l1185 4742h237v86h173v-172h43v172h129v44h-129
v172h172v-129h43v129h173v-129h86v-173h43v-302h87v216h215v216h43v172h173v-172h43v-44h172v-86h518v43h86v-48q122 -18 215 -103v65h345v-302h130v-172h-130v-43h130v-173h-130v-86h-86v-129h-172v129h-43v-129h-14l-261 -1046h-2q-14 -47 -35 -89q-22 -45 -47 -73
q-28 -47 -70 -89q-126 -126 -304 -126h-189q179 0 305 -126q32 -33 56 -68v21h86v-86h-50q34 -79 34 -172q0 -94 -34 -173h50v-86h-86v22q-24 -36 -56 -68q-4 -4 -9 -8v-172h-21v-33h-130v-215h173v-259h-345v-32h216l-216 -863v-53h-1051l431 1724v108q0 45 -31 76
q-32 32 -77 32h-350v-216l-647 647l647 647v-173h43v-43h130v43h86v-43h307q89 0 153 63q22 23 37 49l214 858q0 45 -31 76q-32 32 -77 32h-599l-155 -620l-903 -903l607 -606l-212 -846h12v-86h-34l-32 -130h66v-86h-86v6l-146 -583v-26h-1104zM1681 5130v87h86v-87h-86z
M1897 5130v87h86v-87h-86zM4268 5130v87h86v-87h-86zM4484 5130v87h86v-87h-86zM2069 5087v173h173v-173h-173zM2285 5087v173h172v-173h-172zM2328 5346v86h86v-86h-86zM2543 5346v86h87v-86h-87zM4484 5346v86h86v-86h-86zM2759 5561v87h86v-87h-86zM4484 5561v87h86v-87
h-86zM2500 5518v173h173v-173h-173zM2759 5777v86h86v-86h-86zM2974 5777v86h87v-86h-87zM4484 5777v86h86v-86h-86zM4699 5777v86h86v-86h-86zM3190 5993v86h86v-86h-86zM4699 5993v86h86v-86h-86zM4915 5993v86h86v-86h-86zM5130 5993v86h87v-86h-87zM2931 5949v173h173
v-173h-173zM3190 6208v86h86v-86h-86zM5130 6208v86h87v-86h-87zM5346 6208v86h86v-86h-86zM5561 6208v86h87v-86h-87zM5777 6208v86h86v-86h-86zM3190 6424v86h86v-86h-86zM3406 6424v86h86v-86h-86zM5777 6424v86h86v-86h-86zM5993 6424v86h86v-86h-86zM3406 6639v87h86
v-87h-86zM3621 6855v86h86v-86h-86zM6208 6855v86h86v-86h-86zM3837 7070v87h86v-87h-86zM6639 7286v86h87v-86h-87z" />
    <glyph glyph-name="S" unicode="S" horiz-adv-x="3233" 
d="M2457 592v54h-86v-54h86zM2759 1034v87h86v-87h-86zM2974 1034v87h87v-87h-87zM172 1250v86h86v-86h-86zM3190 1250v86h86v-86h-86zM603 1465v87h86v-87h-86zM3406 1465v87h86v-87h-86zM3190 1681v86h86v-86h-86zM3837 1681v86h86v-86h-86zM560 1638v172h172v-172h-172z
M819 1897v86h86v-86h-86zM1034 2112v86h87v-86h-87zM4052 2112v86h87v-86h-87zM2112 2543v87h86v-87h-86zM2500 2500v173h173v-173h-173zM2328 2759v86h86v-86h-86zM2759 2759v86h86v-86h-86zM3147 2716v172h172v-172h-172zM1897 2974v87h86v-87h-86zM2112 2974v87h86v-87
h-86zM3621 2974v87h86v-87h-86zM4052 2974v87h87v-87h-87zM4268 3190v86h86v-86h-86zM3621 3406v86h86v-86h-86zM3406 3621v86h86v-86h-86zM3621 3621v86h86v-86h-86zM3837 3621v86h86v-86h-86zM3837 3837v86h86v-86h-86zM4052 3837v86h87v-86h-87zM4052 4052v87h87v-87h-87
zM4052 4268v86h87v-86h-87zM4268 4268v86h86v-86h-86zM2026 4311v86h-173v-86h173zM4268 4484v86h86v-86h-86zM2155 4440v216h-86v-216h86zM1034 4699v86h87v-86h-87zM4268 4699v86h86v-86h-86zM4484 4699v86h86v-86h-86zM1250 4915v86h86v-86h-86zM2328 4915v86h86v-86h-86
zM2759 4915v86h86v-86h-86zM3190 4915v86h86v-86h-86zM3406 4915v86h86v-86h-86zM4699 4915v86h86v-86h-86zM4915 4915v86h86v-86h-86zM323 0v0q-162 9 -278 126q-125 126 -125 305q0 87 30 161h-3l160 647h194v183h43v173h173v-173h43v-43h172v-86h426l-108 -431h701
l156 625l-1207 1207h11q-10 9 -19 19q-127 126 -127 305q0 87 30 161h-3l297 1186h1q14 48 35 89q22 45 48 74q28 47 69 88q74 73 165 104v108h129v87h129v86h87v-86h129v-173h97v-86h32v216h43v172h173v-172h43v-44h173v-86h43v86h172v-86h43v86h173v-86h86v43h86v-43h388
v0q162 -9 278 -126q126 -126 126 -305q0 -87 -30 -162h3l-107 -431v108h-97v-119h-173v-97h162v-215h-997l121 485h-714l-172 -690l258 -259h178v-43h173v-172h-173v-43h-102v-248h-243v-162h243v65h-70v86h70v11h275v75h43v173h172v-173h43v-178l282 -281q43 -27 82 -66
q127 -126 127 -305l-62 -248h2v-43h173v-172h-173v-43h-258v43h-87v-43h87v-130h86v-86h129v-172h-129v-87h-43v-172h-25q-6 -81 -28 -150q-19 -138 -122 -241q-126 -126 -305 -126h-1913zM2931 4872v172h173v-172h-173zM2543 5130v87h87v-87h-87zM3621 5130v87h86v-87h-86z
M4915 5130v87h86v-87h-86zM3363 5087v173h172v-173h-172zM1681 5346v86h86v-86h-86zM3621 5346v86h86v-86h-86zM2112 5561v87h86v-87h-86zM4052 5561v87h87v-87h-87zM4268 5561v87h86v-87h-86zM4268 5777v86h86v-86h-86zM4699 6208v86h86v-86h-86zM4915 6424v86h86v-86h-86z
M5130 6639v87h87v-87h-87zM5346 6639v87h86v-87h-86zM5777 6855v86h86v-86h-86z" />
    <glyph glyph-name="T" unicode="T" horiz-adv-x="2802" 
d="M1681 1465v87h86v-87h-86zM2112 1681v86h86v-86h-86zM2069 1853v173h173v-173h-173zM2112 2112v86h86v-86h-86zM2500 2285v172h173v-172h-173zM2974 2543v87h87v-87h-87zM2543 2974v87h87v-87h-87zM3406 2974v87h86v-87h-86zM3837 2974v87h86v-87h-86zM4052 3621v86h87
v-86h-87zM1767 4311v43h-86v-43h86zM1250 4484v86h86v-86h-86zM3621 4484v86h86v-86h-86zM603 4699v86h86v-86h-86zM1465 4699v86h87v-86h-87zM431 0l970 3880h-863l151 604h-86v86h86v-86v0l43 172v216h259v-44h173v44h258v-259h-258v43h-87v-172h173v-130h86v130h129v86
h87v129h129v86h86v-86h173v43h991v86h173v-86h43v86h172v44h259v-44h173v-172h-173v-43h-43v-173h-172v-43h-44v-86h87v43h86v-86h-54l-97 -388h-862l-529 -2113h33v-86h-86v43h-87v-86h-129v-86h-86v-130h-86v-43h86v-86h215v129h259v-258h-259v43l-301 -1207h-1078z
M819 4915v86h86v-86h-86zM1250 4915v86h86v-86h-86zM1465 4915v86h87v-86h-87zM2543 4915v86h87v-86h-87zM2759 4915v86h86v-86h-86zM3406 4915v86h86v-86h-86zM3837 4915v86h86v-86h-86zM991 4872v172h173v-172h-173zM3578 4872v172h173v-172h-173zM3190 5130v87h86v-87
h-86zM3621 5130v87h86v-87h-86zM3837 5130v87h86v-87h-86zM1422 5087v173h173v-173h-173zM4009 5087v173h173v-173h-173zM1681 5346v86h86v-86h-86zM4052 5346v86h87v-86h-87zM1681 5561v87h86v-87h-86zM4052 5561v87h87v-87h-87zM4484 5561v87h86v-87h-86zM4225 5518v173
h172v-173h-172zM4484 5777v86h86v-86h-86zM4699 5777v86h86v-86h-86zM1897 5993v86h86v-86h-86zM4699 5993v86h86v-86h-86zM2328 6208v86h86v-86h-86zM4699 6208v86h86v-86h-86zM4915 6208v86h86v-86h-86zM5130 6208v86h87v-86h-87zM5130 6424v86h87v-86h-87z" />
    <glyph glyph-name="U" unicode="U" horiz-adv-x="3206" 
d="M1250 1465v87h86v-87h-86zM1465 1897v86h87v-86h-87zM3147 1853v173h172v-173h-172zM1681 2112v86h86v-86h-86zM3190 2112v86h86v-86h-86zM1681 2328v86h86v-86h-86zM1897 2328v86h86v-86h-86zM3406 2328v86h86v-86h-86zM3621 2328v86h86v-86h-86zM3621 2543v87h86v-87
h-86zM3621 2759v86h86v-86h-86zM3837 2759v86h86v-86h-86zM2112 2974v87h86v-87h-86zM4052 2974v87h87v-87h-87zM603 4052v87h86v-87h-86zM3837 4268v86h86v-86h-86zM3276 4354v86h-43v-86h43zM3837 4484v86h86v-86h-86zM4052 4484v86h87v-86h-87zM3406 4699v86h86v-86h-86z
M3794 4656v172h172v-172h-172zM323 0v0q-162 9 -278 126q-125 126 -125 305q0 87 30 161h-3l834 3342h1q14 47 35 89q8 16 16 29h-14v87h86v-8q30 18 65 18h107v108h-215l3 11h-46v86h67l84 334h237v140h172v-172h-86v-345h43v173h86v129h60v86h-17v86h87v-43h43v130h258
v-130h168l-108 -431h-16v-388h-254v-43h162l-517 -2070h91v-172h-172v86h-86v-43h-87v-129h-172v-259h43v172h129v87h87v-87h129v-129h86v-86h-86v-129h-135l-65 -259h701l970 3880h469v43h86v-86h-43v-86h86v-129h87v86h16v118h156v140h173v-172h-14l-116 -463v-11h130
v-173h-173v11l-3 -11h3v-258h-67l-65 -259h46v-86h-67l-434 -1736h-216v54h-59v-86h215v-43h173v-173h-173v-43h-215v-140h167l-216 -862h-1q-1 -5 -3 -10q-19 -138 -122 -241q-126 -126 -305 -126h-1913zM1250 4915v86h86v-86h-86zM1681 4915v86h86v-86h-86zM3837 4915v86
h86v-86h-86zM4052 4915v86h87v-86h-87zM1422 4872v172h173v-172h-173zM1465 5130v87h87v-87h-87zM2328 5130v87h86v-87h-86zM4009 5087v173h173v-173h-173zM4052 5346v86h87v-86h-87zM1853 5303v172h173v-172h-173zM4225 5303v172h172v-172h-172zM4484 5561v87h86v-87h-86z
M4699 5561v87h86v-87h-86zM4915 5561v87h86v-87h-86zM2285 5518v173h172v-173h-172zM2543 5777v86h87v-86h-87zM4915 5777v86h86v-86h-86zM2543 5993v86h87v-86h-87zM2759 5993v86h86v-86h-86zM5130 5993v86h87v-86h-87zM5346 5993v86h86v-86h-86zM3190 6208v86h86v-86h-86z
M5346 6208v86h86v-86h-86zM3621 6424v86h86v-86h-86z" />
    <glyph glyph-name="V" unicode="V" horiz-adv-x="3018" 
d="M1897 388v86h86v-86h-86zM1810 991v130h-86v-130h86zM2285 1207v172h172v-172h-172zM2500 1207v172h173v-172h-173zM2543 1465v87h87v-87h-87zM2759 1465v87h86v-87h-86zM3190 1681v86h86v-86h-86zM2716 1638v172h172v-172h-172zM2931 1638v172h173v-172h-173zM3406 1897
v86h86v-86h-86zM3406 2112v86h86v-86h-86zM3621 2112v86h86v-86h-86zM3621 2328v86h86v-86h-86zM3621 2543v87h86v-87h-86zM3837 2759v86h86v-86h-86zM3578 2716v172h173v-172h-173zM3837 2974v87h86v-87h-86zM3837 3190v86h86v-86h-86zM3837 3406v86h86v-86h-86zM4052 3406
v86h87v-86h-87zM1681 3621v86h86v-86h-86zM4268 3837v86h86v-86h-86zM4484 3837v86h86v-86h-86zM1379 4225v129h-129v-43h43v-86h86zM1681 4268v86h86v-86h-86zM1681 4484v86h86v-86h-86zM4915 4484v86h86v-86h-86zM3449 4311v302h-43v-259h-43v-43h86zM1681 4699v86h86v-86
h-86zM538 0v4742h238v86h172v44h259v-173h43v86h86v-86h86v129h173v-172h-130v-86h87v-86h-87v-44h173v-474h-216v-86h87v-1725l1293 2587h172v43h87v-86h-43v-259h43v259h43v173h474v-130h43v43h86v-43h130v43h86v-86h-65l-43 -86h151v-173h-172v130l-87 -173h44v-172h-130
l-1444 -2889h21v-86h-86v43h-215v-86h172v-43h173v-173h-173v-259h-43v-172h-173v129l-86 -172h43v-173h-129l-172 -344h-971zM1034 4915v86h87v-86h-87zM1250 4915v86h86v-86h-86zM1465 4915v86h87v-86h-87zM1897 4915v86h86v-86h-86zM3190 4915v86h86v-86h-86zM3406 4915
v86h86v-86h-86zM3621 4915v86h86v-86h-86zM4052 4915v86h87v-86h-87zM1638 4872v172h172v-172h-172zM3794 4872v172h172v-172h-172zM819 5130v87h86v-87h-86zM1897 5130v87h86v-87h-86zM4052 5130v87h87v-87h-87zM4268 5130v87h86v-87h-86zM5561 5130v87h87v-87h-87z
M2069 5087v173h173v-173h-173zM1250 5346v86h86v-86h-86zM1465 5346v86h87v-86h-87zM2112 5346v86h86v-86h-86zM2328 5346v86h86v-86h-86zM4268 5346v86h86v-86h-86zM4484 5346v86h86v-86h-86zM4484 5561v87h86v-87h-86zM2285 5518v173h172v-173h-172zM1897 5777v86h86v-86
h-86zM2328 5777v86h86v-86h-86zM2543 5777v86h87v-86h-87zM2543 5993v86h87v-86h-87zM2759 5993v86h86v-86h-86zM4915 5993v86h86v-86h-86zM2974 6208v86h87v-86h-87zM3190 6208v86h86v-86h-86zM3621 6639v87h86v-87h-86zM3837 6855v86h86v-86h-86z" />
    <glyph glyph-name="W" unicode="W" horiz-adv-x="4931" 
d="M1250 1034v87h86v-87h-86zM2974 1034v87h87v-87h-87zM4915 1034v87h86v-87h-86zM3966 1077v130h216v86h-275v-216h59zM1465 1250v86h87v-86h-87zM4397 1422v87h-86v-87h86zM4872 1422v173h172v-173h-172zM1681 1681v86h86v-86h-86zM4915 1681v86h86v-86h-86zM5130 1681
v86h87v-86h-87zM5087 1853v173h173v-173h-173zM1897 2112v86h86v-86h-86zM5087 2069v173h173v-173h-173zM5346 2328v86h86v-86h-86zM5561 2328v86h87v-86h-87zM5561 2543v87h87v-87h-87zM5734 2500v173h172v-173h-172zM3621 2759v86h86v-86h-86zM5993 2759v86h86v-86h-86z
M5993 2974v87h86v-87h-86zM6424 3190v86h86v-86h-86zM6639 3190v86h87v-86h-87zM1897 3621v86h86v-86h-86zM4052 3621v86h87v-86h-87zM5346 3621v86h86v-86h-86zM6208 3837v86h86v-86h-86zM6424 3837v86h86v-86h-86zM1897 4052v87h86v-87h-86zM5346 4052v87h86v-87h-86z
M2845 4149v108h-43v-108h43zM5561 4268v86h87v-86h-87zM2112 4484v86h86v-86h-86zM3061 4268v420h-43v-420h43zM5734 4656v172h172v-172h-172zM5949 4656v172h173v-172h-173zM1465 4915v86h87v-86h-87zM1681 4915v86h86v-86h-86zM2543 4915v86h87v-86h-87zM3406 4915v86h86
v-86h-86zM2069 4872v172h173v-172h-173zM3794 4872v172h172v-172h-172zM323 0v0q-162 9 -278 126q-125 126 -125 305q0 87 30 161h-3l1023 4096v54h237v86h172v-86h22v-54h-22v-32h-86v-345h86v345h259v172h172v44h259v-44h173v-172h-173v-259h-216v-86h60l-841 -3363h92
v-86h86v43h86v-43h402l956 3826v54h280v43h87v-43h64v-43h22v129h172v-129h87v-43h16v86h113v130h43v172h173v-172h43v-259h-81l-92 -367v-107h-27l-797 -3191h91v-86h43v86h173v-86h372l970 3880h339v173h518v129h172v-172h-129v-216h388v-259h-216v-215h-215v-216h-345
v-140h296l-83 -334h46v-86h-68l-434 -1736h-188v-32h129v-43h172v-173h-172v-43h172v-172h-172v-43h-67l-197 -787h-1q-2 -5 -3 -10q-19 -138 -122 -241q-127 -126 -305 -126h-1698v0q-161 9 -278 126q-25 25 -45 52q-20 -27 -46 -52q-126 -126 -305 -126h-1266zM6165 4872
v172h173v-172h-173zM2112 5130v87h86v-87h-86zM2543 5130v87h87v-87h-87zM4052 5130v87h87v-87h-87zM5561 5130v87h87v-87h-87zM6424 5130v87h86v-87h-86zM2285 5087v173h172v-173h-172zM3794 5087v173h172v-173h-172zM2543 5346v86h87v-86h-87zM6424 5346v86h86v-86h-86z
M6639 5346v86h87v-86h-87zM2716 5303v172h172v-172h-172zM4009 5303v172h173v-172h-173zM4268 5561v87h86v-87h-86zM6855 5561v87h86v-87h-86zM2759 5777v86h86v-86h-86zM4484 5777v86h86v-86h-86zM4915 5777v86h86v-86h-86zM7070 5777v86h87v-86h-87zM2931 5734v172h173
v-172h-173zM3190 5993v86h86v-86h-86zM4915 5993v86h86v-86h-86zM5130 5993v86h87v-86h-87zM3190 6208v86h86v-86h-86zM5346 6208v86h86v-86h-86zM3190 6424v86h86v-86h-86zM5777 6424v86h86v-86h-86zM3406 6639v87h86v-87h-86z" />
    <glyph glyph-name="X" unicode="X" 
d="M1034 603v86h87v-86h-87zM1250 603v86h86v-86h-86zM1465 819v86h87v-86h-87zM1897 1250v86h86v-86h-86zM3406 1465v87h86v-87h-86zM3621 1681v86h86v-86h-86zM3363 1638v172h172v-172h-172zM3621 1897v86h86v-86h-86zM3837 1897v86h86v-86h-86zM4052 1897v86h87v-86h-87z
M4268 1897v86h86v-86h-86zM4268 2112v86h86v-86h-86zM4052 2328v86h87v-86h-87zM4484 2328v86h86v-86h-86zM4915 2974v87h86v-87h-86zM2112 3621v86h86v-86h-86zM2328 4052v87h86v-87h-86zM4052 4268v86h87v-86h-87zM3837 4484v86h86v-86h-86zM4052 4484v86h87v-86h-87z
M2328 4699v86h86v-86h-86zM4052 4699v86h87v-86h-87zM0 0l485 1940h1q14 47 35 89q22 45 48 74q32 78 96 142q126 126 305 126h107v7q-127 22 -224 119q-126 127 -126 305q0 28 3 54h-3l7 29v0q5 27 13 51l438 1752v54h280v43h87v-43h64v-54h-107v-161h129v86h86v43h-86v172
h172v44h259v-130h43v43h86v-43h65l-471 -1885q7 -13 18 -23q31 -32 76 -32h404q89 0 153 63q22 23 37 49l338 1354h-59v86h81l97 388h253v43h86v-43h87v86h172v44h259v-44h172v-172h-172v-43h-43v-173h-173v-183h216v140h172v-172h-94l-22 -86h73v-87h-86v33l-334 -1337h-2
q-14 -47 -35 -89q-22 -45 -47 -73q-28 -47 -70 -89q-126 -126 -304 -126h-216v-10q95 -15 170 -53q84 -42 112 -96q12 -10 23 -21q126 -127 126 -305q0 -39 -6 -76h65v-172h-137q-16 -22 -35 -43h172v-173h-172v173q-6 -7 -13 -14q-4 -4 -9 -8v-118h-194v-76h173v-86h21
l-323 -1293h-1078l431 1724v108q0 45 -31 76q-32 32 -76 32h-324q-89 0 -152 -63q-23 -23 -37 -49l-231 -923h32v-86h-86v43h-43v-130h-259v-172h-86v-86h43v-43h86v86h173v-86h21l-108 -431h-1077zM1465 4915v86h87v-86h-87zM1681 4915v86h86v-86h-86zM2328 4915v86h86v-86
h-86zM3837 4915v86h86v-86h-86zM2069 4872v172h173v-172h-173zM4009 4872v172h173v-172h-173zM1897 5130v87h86v-87h-86zM2112 5130v87h86v-87h-86zM3837 5130v87h86v-87h-86zM4052 5130v87h87v-87h-87zM4268 5130v87h86v-87h-86zM2285 5087v173h172v-173h-172zM2543 5346
v86h87v-86h-87zM3837 5346v86h86v-86h-86zM4484 5346v86h86v-86h-86zM4225 5303v172h172v-172h-172zM2759 5561v87h86v-87h-86zM4699 5561v87h86v-87h-86zM2500 5518v173h173v-173h-173zM4440 5518v173h173v-173h-173zM2759 5777v86h86v-86h-86zM4699 5777v86h86v-86h-86z
M4915 5777v86h86v-86h-86zM5130 5777v86h87v-86h-87zM5130 5993v86h87v-86h-87zM5346 5993v86h86v-86h-86zM5561 5993v86h87v-86h-87zM3190 6208v86h86v-86h-86zM3406 6424v86h86v-86h-86zM5993 6424v86h86v-86h-86z" />
    <glyph glyph-name="Y" unicode="Y" horiz-adv-x="3206" 
d="M2500 808v54h-43v-54h43zM3406 1250v86h86v-86h-86zM3147 1207v172h172v-172h-172zM819 1465v87h86v-87h-86zM1034 1465v87h87v-87h-87zM3621 1465v87h86v-87h-86zM1207 1422v173h172v-173h-172zM3147 1422v173h172v-173h-172zM3363 1422v173h172v-173h-172zM1465 1681
v86h87v-86h-87zM3621 1681v86h86v-86h-86zM3621 1897v86h86v-86h-86zM3837 2112v86h86v-86h-86zM4052 2543v87h87v-87h-87zM4052 2759v86h87v-86h-87zM4268 2759v86h86v-86h-86zM1681 2974v87h86v-87h-86zM4268 2974v87h86v-87h-86zM1897 3190v86h86v-86h-86zM2112 3406v86
h86v-86h-86zM4699 3406v86h86v-86h-86zM4699 3621v86h86v-86h-86zM1897 4052v87h86v-87h-86zM1482 4311v173h-17v-130h-172v-43h189zM2112 4484v86h86v-86h-86zM1250 4915v86h86v-86h-86zM1465 4915v86h87v-86h-87zM1897 4915v86h86v-86h-86zM4052 4915v86h87v-86h-87z
M1940 1724v216h-1186v7v0q-128 22 -224 119q-126 126 -126 305q0 87 30 162h-3l539 2155h151v11h86v129h172v-129h86v-129h17v129h-17v86h87v130h86v129h172v-129h87v-173h124l-97 -388h59v-86h-81l-313 -1250h-124v-173h-172v-43h172v43h87v-43h129v43h86v-43h173v216
l646 -647l-646 -647v0zM323 0v0q-162 9 -278 126q-125 126 -125 305q0 87 30 161h-3l160 647v54h237v86h130v86h345v-86h129v-86h86v43h87v-43h37l-108 -431h674l162 647l876 875l-526 526l458 1832h237v86h173v-172h-86v-86h43v-86h-43v-173h43v173h129v86h86v-86h38v86
h-38v129h-86v86h86v130h130v86h86v-86h86v129h173v-172h-130v-184h124l-806 -3223h35v-129h87v-86h-87v-86h130v-173h-173v130h-86v-87h-86v87h-129v86h-44v-259h87v-140h43v140h172v-172h-121l-100 -399h-1q-1 -5 -3 -10q-19 -138 -122 -241q-126 -126 -305 -126h-1913z
M3794 4872v172h172v-172h-172zM1681 5130v87h86v-87h-86zM2112 5130v87h86v-87h-86zM3621 5130v87h86v-87h-86zM3837 5130v87h86v-87h-86zM4052 5130v87h87v-87h-87zM4484 5130v87h86v-87h-86zM4699 5130v87h86v-87h-86zM1853 5087v173h173v-173h-173zM4225 5087v173h172
v-173h-172zM1897 5346v86h86v-86h-86zM4699 5346v86h86v-86h-86zM4915 5346v86h86v-86h-86zM2069 5303v172h173v-172h-173zM2112 5561v87h86v-87h-86zM2328 5561v87h86v-87h-86zM4915 5561v87h86v-87h-86zM2328 5777v86h86v-86h-86zM5130 5777v86h87v-86h-87zM2328 5993v86
h86v-86h-86zM5346 5993v86h86v-86h-86zM5561 5993v86h87v-86h-87zM2759 6208v86h86v-86h-86zM2974 6208v86h87v-86h-87zM3190 6424v86h86v-86h-86zM3190 6639v87h86v-87h-86zM3406 6855v86h86v-86h-86z" />
    <glyph glyph-name="Z" unicode="Z" 
d="M1681 1034v87h86v-87h-86zM1897 1465v87h86v-87h-86zM2328 1465v87h86v-87h-86zM2759 1465v87h86v-87h-86zM2759 1681v86h86v-86h-86zM2974 1681v86h87v-86h-87zM3406 1681v86h86v-86h-86zM3147 1638v172h172v-172h-172zM3147 1853v173h172v-173h-172zM1034 2328v86h87
v-86h-87zM3578 2285v172h173v-172h-173zM1034 2543v87h87v-87h-87zM4052 2543v87h87v-87h-87zM1250 2759v86h86v-86h-86zM4268 2759v86h86v-86h-86zM3406 2974v87h86v-87h-86zM1465 3190v86h87v-86h-87zM3837 3621v86h86v-86h-86zM4052 3621v86h87v-86h-87zM4052 3837v86h87
v-86h-87zM4268 3837v86h86v-86h-86zM3837 4052v87h86v-87h-86zM4484 4052v87h86v-87h-86zM4009 4009v173h173v-173h-173zM4225 4009v173h172v-173h-172zM4699 4268v86h86v-86h-86zM4225 4225v172h172v-172h-172zM4440 4225v172h173v-172h-173zM2155 4311v43h-172v43h-388
v173h-86v-259h646zM4052 4484v86h87v-86h-87zM4268 4484v86h86v-86h-86zM4915 4484v86h86v-86h-86zM5130 4484v86h87v-86h-87zM4440 4440v173h173v-173h-173zM4656 4440v173h172v-173h-172zM3664 4613v43h-86v-43h86zM4699 4699v86h86v-86h-86zM5130 4699v86h87v-86h-87z
M5346 4699v86h86v-86h-86zM5561 4699v86h87v-86h-87zM4872 4656v172h172v-172h-172zM1681 4915v86h86v-86h-86zM3190 4915v86h86v-86h-86zM3406 4915v86h86v-86h-86zM5346 4915v86h86v-86h-86zM5561 4915v86h87v-86h-87zM5777 4915v86h86v-86h-86zM6208 4915v86h86v-86h-86z
M6424 4915v86h86v-86h-86zM3578 4872v172h173v-172h-173zM3794 4872v172h172v-172h-172zM4009 4872v172h173v-172h-173zM1465 5130v87h87v-87h-87zM1681 5130v87h86v-87h-86zM3837 5130v87h86v-87h-86zM6424 5130v87h86v-87h-86zM6639 5130v87h87v-87h-87zM1853 5087v173
h173v-173h-173zM4009 5087v173h173v-173h-173zM4225 5087v173h172v-173h-172zM26 0l297 1185h3q12 128 60 224q38 76 85 106q21 30 44 47h-3l431 432h188v75h-140v173h173v-87h210v270l1275 1275l45 180h-646l-108 -431h-1078l323 1293h151v173h345v-130h86v-86h-86v-43h129
v216h43v172h173v43h43v173h173v43h258v-475h-215v-86h474v43h86v-43h129v43h87v-86h43v173h474v-44h173v-86h43v86h172v-86h22l-97 -388h32v-86h-86v43h-130v-43h-86v86h43v86h-86v-43h-388v-86h259v-431h54v216h118v43h86v-43h119l-22 -87h205v-258h-258v43l-12 -45
q-11 -94 -43 -170q-12 -46 -29 -87h40v-86h-86v5q-24 -32 -51 -49q-21 -30 -44 -48h4l-2156 -2156v27l-59 -237h64v-86h43v86h173v-86h345l108 431h280v43h86v-86h43v172h43v173h173v-173h43v-560h86v431h323l-323 -1293h-2776zM2112 5346v86h86v-86h-86zM4268 5346v86h86
v-86h-86zM4484 5346v86h86v-86h-86zM6855 5346v86h86v-86h-86zM2500 5303v172h173v-172h-173zM2716 5303v172h172v-172h-172zM4699 5561v87h86v-87h-86zM2716 5518v173h172v-173h-172zM2931 5518v173h173v-173h-173zM4915 5777v86h86v-86h-86zM2931 5734v172h173v-172h-173z
M3147 5734v172h172v-172h-172zM3406 5993v86h86v-86h-86zM5346 5993v86h86v-86h-86zM3621 6208v86h86v-86h-86zM3837 6208v86h86v-86h-86zM4052 6208v86h87v-86h-87zM4052 6424v86h87v-86h-87zM4268 6424v86h86v-86h-86zM4699 6639v87h86v-87h-86z" />
    <glyph glyph-name="a" unicode="a" horiz-adv-x="3341" 
d="M1940 1077v1078l-539 -1078h539zM-215 0l2155 4311h970v-4311h-970v215h-970l-108 -215h-1077z" />
    <glyph glyph-name="b" unicode="b" 
d="M1805 862q89 0 153 63q22 22 37 48l174 697q-7 12 -18 23q-32 31 -77 31h-592l-216 -862h539zM2236 2586q89 0 153 63q22 23 37 49l174 696q-7 12 -18 23q-32 32 -76 32h-593l-216 -863h539zM0 0l1077 4311h2264v-1q162 -9 278 -125q126 -127 126 -305q0 -87 -30 -162h3
l-296 -1185h-1q-14 -48 -35 -90q-23 -44 -48 -73q-28 -47 -69 -88q-127 -127 -305 -127h-162v0q162 -9 278 -126q126 -126 126 -305q0 -87 -30 -162h3l-296 -1185h-1q-2 -5 -3 -10q-19 -138 -122 -241q-127 -126 -305 -126h-2452z" />
    <glyph glyph-name="c" unicode="c" horiz-adv-x="3233" 
d="M323 0v0q-162 9 -278 126q-125 126 -125 305q0 87 30 161h-3l834 3342h1q2 5 3 9v0q19 139 122 242q127 126 305 126h1913v-1q162 -9 278 -125q127 -127 127 -305q0 -87 -30 -162h3l-189 -754h-1024l121 485h-714l-647 -2587h715l94 377h1024l-216 -862h-1q-1 -5 -3 -10
q-19 -138 -122 -241q-126 -126 -305 -126h-1913z" />
    <glyph glyph-name="d" unicode="d" 
d="M1967 862l646 2587h-700l-647 -2587h701zM0 0l1077 4311h2264v-1q162 -9 278 -125q126 -127 126 -305q0 -87 -30 -162h3l-835 -3341h-1q-2 -5 -3 -10q-19 -138 -122 -241q-127 -126 -305 -126h-2452z" />
    <glyph glyph-name="e" unicode="e" horiz-adv-x="2802" 
d="M323 0v0q-162 9 -278 126q-125 126 -125 305q0 87 30 161h-3l834 3342h1q2 5 3 9v0q19 139 122 242q127 126 305 126h2021l-215 -862h-1321l-215 -863h1104l-431 -862h-889l-216 -862h1321l-216 -862h-1832z" />
    <glyph glyph-name="f" unicode="f" horiz-adv-x="2775" 
d="M26 0v53l971 3881h1q1 5 3 9q19 139 122 242q126 126 305 126h2021l-216 -862h-1320l-216 -863h1105l-431 -862h-889l-432 -1724h-1024z" />
    <glyph glyph-name="g" unicode="g" horiz-adv-x="3233" 
d="M323 0v0q-162 9 -278 126q-125 126 -125 305q0 87 30 161h-3l834 3342h1q2 5 3 9v0q19 139 122 242q127 126 305 126h1913v-1q162 -9 278 -125q127 -127 127 -305q0 -87 -30 -162h3l-189 -754h-1024l121 485h-714l-647 -2587h701l279 1114l-306 610h1482v-53l-539 -2156
h-1q-1 -5 -3 -10q-19 -138 -122 -241q-126 -126 -305 -126h-1913z" />
    <glyph glyph-name="h" unicode="h" 
d="M0 0l1077 4311h1078l-431 -1725h647l431 1725h1078l-1078 -4311h-1078l431 1724h-646l-432 -1724h-1077z" />
    <glyph glyph-name="i" unicode="i" horiz-adv-x="1724" 
d="M0 0l1077 4311h1078l-1078 -4311h-1077z" />
    <glyph glyph-name="j" unicode="j" horiz-adv-x="3018" 
d="M26 0l216 862h1294l862 3449h1024v-54l-970 -3880h-2l-2 -10q-19 -138 -123 -241q-126 -126 -304 -126h-1995z" />
    <glyph glyph-name="k" unicode="k" 
d="M0 0l1077 4311h1078l-431 -1725h512q89 0 153 63q22 23 37 49l403 1613h1051l-406 -1625q-10 -139 -61 -243q-23 -44 -48 -73q-28 -47 -70 -88q-126 -127 -304 -127h-189v0q162 -9 278 -126q126 -126 126 -305q0 -87 -30 -162h3l-377 -1509v-53h-1051l418 1670
q-7 12 -18 23q-32 31 -77 31h-565l-432 -1724h-1077z" />
    <glyph glyph-name="l" unicode="l" 
d="M0 0l1077 4311h1078l-862 -3449h1725l-216 -862h-2802z" />
    <glyph glyph-name="m" unicode="m" horiz-adv-x="4500" 
d="M0 0l1077 4311h1186l237 -1897l949 1897h1509l-1078 -4311h-1078l431 1724l-862 -1724h-647l-215 1724l-432 -1724h-1077z" />
    <glyph glyph-name="n" unicode="n" 
d="M0 0l1077 4311h863l431 -1725l431 1725h1078l-1078 -4311h-862l-431 1724l-432 -1724h-1077z" />
    <glyph glyph-name="o" unicode="o" horiz-adv-x="3206" 
d="M1751 862l647 2587h-701l-647 -2587h701zM323 0v0q-162 9 -278 126q-125 126 -125 305q0 87 30 161h-3l834 3342h1q2 5 3 9v0q19 139 122 242q127 126 305 126h1913v-1q162 -9 278 -125q127 -127 127 -305q0 -87 -30 -162h3l-836 -3341h-1q-1 -5 -3 -10
q-19 -138 -122 -241q-126 -126 -305 -126h-1913z" />
    <glyph glyph-name="p" unicode="p" 
d="M2236 2586q89 0 153 63q22 23 37 49l174 696q-7 12 -18 23q-32 32 -76 32h-593l-216 -863h539zM0 0l1077 4311h2264v-1q162 -9 278 -125q126 -127 126 -305q0 -87 -30 -162h3l-404 -1617h-1q-2 -4 -3 -9q-19 -139 -122 -242q-127 -126 -305 -126h-1401l-432 -1724h-1050z
" />
    <glyph glyph-name="q" unicode="q" horiz-adv-x="3233" 
d="M1751 862l647 2587h-701l-647 -2587h701zM431 -862l215 862h-323v0q-162 9 -278 126q-125 126 -125 305q0 87 30 161h-3l834 3342h1q2 5 3 9v0q19 139 122 242q127 126 305 126h1913v-1q162 -9 278 -125q127 -127 127 -305q0 -87 -30 -162h3l-836 -3341h-1q-1 -5 -3 -10
q-19 -138 -122 -241q-126 -126 -305 -126h-512l-215 -862h-1078z" />
    <glyph glyph-name="r" unicode="r" 
d="M2236 2586q89 0 153 63q22 23 37 49l174 696q-7 12 -18 23q-32 32 -76 32h-593l-216 -863h539zM0 0l1077 4311h2264v-1q162 -9 278 -125q126 -127 126 -305q0 -87 -30 -162h3l-296 -1185h-1q-14 -48 -35 -90q-23 -44 -48 -73q-28 -47 -69 -88q-127 -127 -305 -127h-162v0
q162 -9 278 -126q126 -126 126 -305q0 -87 -30 -162h3l-377 -1509v-53h-1051l418 1670q-7 12 -18 23q-32 31 -77 31h-592l-432 -1724h-1050z" />
    <glyph glyph-name="s" unicode="s" horiz-adv-x="3233" 
d="M323 0v0q-162 9 -278 126q-125 126 -125 305q0 87 30 161h-3l160 647v54h1051l-108 -431h715l88 356l-1159 1159v0q-44 27 -83 66q-126 127 -126 305l296 1186h1q2 5 3 9v0q19 139 122 242q127 126 305 126h1913v-1q162 -9 278 -125q127 -127 127 -305q0 -87 -30 -162h3
l-189 -754h-1024l121 485h-714l-118 -475l1149 -1149q44 -27 82 -66q127 -126 127 -304l-270 -1078h-1q-1 -5 -3 -10q-19 -138 -122 -241q-126 -126 -305 -126h-1913z" />
    <glyph glyph-name="t" unicode="t" horiz-adv-x="2802" 
d="M431 0l862 3449h-862l215 862h2803l-216 -862h-862l-862 -3449h-1078z" />
    <glyph glyph-name="u" unicode="u" horiz-adv-x="3206" 
d="M323 0v0q-162 9 -278 126q-125 126 -125 305q0 87 30 161h-3l915 3665v54h1051l-863 -3449h701l862 3449h1024v-54l-970 -3880h-1q-1 -5 -3 -10q-19 -138 -122 -241q-126 -126 -305 -126h-1913z" />
    <glyph glyph-name="v" unicode="v" horiz-adv-x="3018" 
d="M538 0v4311h971v-2156l1077 2156h1078l-2155 -4311h-971z" />
    <glyph glyph-name="w" unicode="w" horiz-adv-x="4958" 
d="M323 0v0q-162 9 -278 126q-125 126 -125 305q0 87 30 161h-3l915 3665v54h1051l-863 -3449h688l848 3395v54h1051l-862 -3449h701l862 3449h1024v-54l-970 -3880h-1q-2 -5 -3 -10q-19 -138 -122 -241q-127 -126 -305 -126h-1698v0q-161 9 -278 126q-25 25 -45 52
q-20 -27 -46 -52q-126 -126 -305 -126h-1266z" />
    <glyph glyph-name="x" unicode="x" 
d="M0 0l406 1624q9 140 61 243q22 45 48 74q27 47 69 88q126 126 305 126h188v1q-161 9 -277 126q-127 126 -127 304q0 87 30 162h-3l377 1509v54h1051l-417 -1670q7 -12 18 -23q31 -32 76 -32h431q89 0 153 63q22 23 37 49l403 1613h1051l-406 -1625q-10 -139 -61 -243
q-23 -44 -48 -73q-28 -47 -70 -88q-126 -127 -304 -127h-189v0q162 -9 278 -126q126 -126 126 -305q0 -87 -30 -162h3l-377 -1509v-53h-1051l418 1670q-7 12 -18 23q-32 31 -77 31h-431q-89 0 -152 -63q-23 -22 -37 -48l-404 -1613h-1050z" />
    <glyph glyph-name="y" unicode="y" horiz-adv-x="3206" 
d="M323 0v0q-162 9 -278 126q-125 126 -125 305q0 87 30 161h-3l160 647v54h1051l-108 -431h701l216 862h-1213v1q-162 9 -278 125q-126 127 -126 305q0 87 30 162h-3l485 1940v54h1051l-431 -1725h700l431 1725h1024v-54l-970 -3880h-1q-1 -5 -3 -10q-19 -138 -122 -241
q-126 -126 -305 -126h-1913z" />
    <glyph glyph-name="z" unicode="z" 
d="M26 0l243 970h3q12 127 60 224q38 75 85 105q21 30 45 48h-4l2102 2102h-620l-108 -431h-1078l323 1293h2803l-195 -778q-11 -94 -43 -170q-15 -60 -41 -111q-38 -76 -84 -106q-22 -30 -45 -48h4l-2156 -2155v27l-27 -108h647l108 431h1077l-323 -1293h-2776z" />
    <glyph glyph-name="asciitilde" unicode="~" horiz-adv-x="12934" 
d="M2802 646v216h-216v-216h216zM3664 646v216h-215v-216h215zM5820 646v216h-215v-216h215zM646 431q-89 0 -152 126t-63 305q0 178 126 305q126 126 305 126t305 -63t126 -153h-431v-431h431q0 -89 -126 -152t-305 -63h-216zM2586 215q-178 0 -304 63q-127 63 -127 153
l338 225q-120 25 -211 117q-127 126 -127 304q0 90 127 153q126 63 304 63q179 0 305 -126q127 -127 127 -305v-216q0 -179 -64 -305q-63 -126 -152 -126h-216zM3449 431q-89 0 -153 126q-63 126 -63 305q0 178 127 305q125 126 304 126t305 -63q127 -63 127 -153
q0 -178 -127 -304q-126 -127 -305 -127h432q0 -89 -127 -152q-126 -63 -305 -63h-215zM4311 431v431q0 178 126 305q126 126 305 126t305 -63t126 -153v-215q0 -179 -126 -305t-305 -126v431h-215v-431h-216zM5605 431q-90 0 -153 126t-63 305q0 178 126 305
q126 126 305 126t305 -63t126 -153q0 -178 -126 -304q-126 -127 -305 -127h431q0 -89 -126 -152t-305 -63h-215zM8838 431q-179 0 -305 63t-126 152v216q0 178 126 305q126 126 305 126v-431h216v431h215v-431q0 -179 -126 -305t-305 -126v0zM10994 431q-179 0 -305 63
t-126 152q0 179 126 305t305 126v-215h216v215h-647q0 90 126 153t305 63h216q89 0 152 -126t63 -305t-126 -305t-305 -126v0zM11641 431v431q0 178 126 305q126 126 305 126t305 -63t126 -153v-215q0 -179 -126 -305t-305 -126v431h-216v-431h-215zM1293 215v216h216v862
h-216v216h-862v-216h-216v-862h216v-216h862zM7760 431q-179 0 -304 126q-127 126 -127 305v215q0 179 63 305q64 127 153 127h431q0 -179 -63 -305q-63 -127 -153 -127h-215v-215h215v215q179 0 305 -126q127 -126 127 -305q0 -89 -127 -152q-126 -63 -305 -63v0zM9916 431
q-179 0 -305 126t-126 305v215q0 179 63 305q63 127 153 127h431q0 -179 -63 -305q-64 -127 -153 -127h-215v-215h215v215q179 0 305 -126t126 -305q0 -89 -126 -152t-305 -63v0zM646 0q-179 0 -305 63t-126 152q-89 0 -152 126t-63 305v431q0 179 63 305q63 127 152 127
q0 89 126 152t305 63h431q179 0 305 -63q127 -63 127 -152q89 0 152 -127q63 -126 63 -305v-431q0 -179 -63 -305t-152 -126q0 -89 -127 -152q-126 -63 -305 -63h-431z" />
    <glyph glyph-name="quoteleft" unicode="&#x2018;" 
d="M0 0l1077 4311h1051l-323 -1293l-862 -863l539 -539l-405 -1616h-1077zM1751 0l418 1670q-7 12 -18 23q-32 31 -77 31h-350v-215l-647 646l647 647v-216h512q89 0 153 63q22 23 37 49l403 1613h1051l-406 -1625q-10 -139 -61 -243q-23 -44 -48 -73q-28 -47 -70 -88
q-126 -127 -304 -127h-189v0q162 -9 278 -126q126 -126 126 -305q0 -87 -30 -162h3l-377 -1509v-53h-1051z" />
    <glyph glyph-name="quoteright" unicode="&#x2019;" 
d="M0 0l1077 4311h2264v-1q162 -9 278 -125q126 -127 126 -305q0 -87 -30 -162h3l-296 -1185h-1q-14 -48 -35 -90q-23 -44 -48 -73q-28 -47 -69 -88q-127 -127 -305 -127h-162v0q162 -9 278 -126q126 -126 126 -305q0 -87 -30 -162h3l-377 -1509v-53h-1051l418 1670
q-7 12 -18 23q-32 31 -77 31h-350v-215l-647 646l647 647v-216h512q89 0 153 63q22 23 37 49l174 696q-7 12 -18 23q-32 32 -76 32h-593l-108 -431l-862 -863l539 -539l-405 -1616h-1077z" />
    <glyph glyph-name="quotedblleft" unicode="&#x201c;" 
d="M1805 862q89 0 153 63q22 22 37 48l174 697q-7 12 -18 23q-32 31 -77 31h-350v-215l-647 646l647 647v-216h512q89 0 153 63q22 23 37 49l174 696q-7 12 -18 23q-32 32 -76 32h-593l-108 -431l-862 -863l539 -539l-189 -754h512zM0 0l1077 4311h2264v-1q162 -9 278 -125
q126 -127 126 -305q0 -87 -30 -162h3l-296 -1185h-1q-14 -48 -35 -90q-23 -44 -48 -73q-28 -47 -69 -88q-127 -127 -305 -127h-162v0q162 -9 278 -126q126 -126 126 -305q0 -87 -30 -162h3l-296 -1185h-1q-2 -5 -3 -10q-19 -138 -122 -241q-127 -126 -305 -126h-2452z" />
    <glyph glyph-name="quotedblright" unicode="&#x201d;" 
d="M0 0l1077 4311h1078l-431 -1725h431v216l647 -647l-647 -646v215h-646l-432 -1724h-1077zM1724 0l297 1185h3q10 44 53 81h-3l876 876l-552 552l404 1617h1078l-1078 -4311h-1078z" />
    </font>
</defs>
</svg>
