<?xml version="1.0" standalone="no"?>
<!DOCTYPE svg PUBLIC "-//W3C//DTD SVG 1.1//EN" "http://www.w3.org/Graphics/SVG/1.1/DTD/svg11.dtd" >
<svg xmlns="http://www.w3.org/2000/svg" xmlns:xlink="http://www.w3.org/1999/xlink" version="1.1">
<metadata>
Created by FontForge 20170731 at Thu Jan  2 13:51:04 2020
 By Aleksey,,,
Copyright Gene Buban 2018
</metadata>
<defs>
<font id="Panthera" horiz-adv-x="2560" >
  <font-face 
    font-family="Panthera"
    font-weight="400"
    font-stretch="normal"
    units-per-em="4096"
    panose-1="0 0 4 0 0 0 0 0 0 0"
    ascent="4096"
    descent="0"
    x-height="4096"
    cap-height="4096"
    bbox="-195 -585 10825 4096"
    underline-thickness="204"
    underline-position="103"
    unicode-range="U+0020-201D"
  />
<missing-glyph horiz-adv-x="3443" 
d="M3081 50l-1506 1978l-1506 -1978h3012zM50 69l1506 1979l-1506 1978v-3957v0zM3100 69v3957l-1506 -1978l1506 -1979v0zM1575 2067l1506 1979h-3012l1506 -1979v0zM0 0v4096h3150v-4096h-3150z" />
    <glyph glyph-name=".notdef" horiz-adv-x="3443" 
d="M3081 50l-1506 1978l-1506 -1978h3012zM50 69l1506 1979l-1506 1978v-3957v0zM3100 69v3957l-1506 -1978l1506 -1979v0zM1575 2067l1506 1979h-3012l1506 -1979v0zM0 0v4096h3150v-4096h-3150z" />
    <glyph glyph-name="glyph1" horiz-adv-x="585" 
 />
    <glyph glyph-name="glyph2" horiz-adv-x="585" 
 />
    <glyph glyph-name="space" unicode=" " horiz-adv-x="1645" 
 />
    <glyph glyph-name="A" unicode="A" horiz-adv-x="2596" 
d="M1316 877l-292 1171l-293 -1171h585zM1865 146v146l-37 293l-658 2633v-293l695 -2779v0zM-146 0q100 0 174 115v0l996 3981h292l995 -3981q76 -115 175 -115h-1097q61 0 104 42q14 15 24 32l-91 364h-805l-91 -364v0q10 -17 24 -32q43 -42 104 -42h-804z" />
    <glyph glyph-name="B" unicode="B" 
d="M1170 585q121 0 207 85q85 86 85 207v1171q0 121 -85 207q-86 85 -207 85h-366v-1755h366zM1389 296q196 23 341 168q171 171 171 413v1171q0 242 -171 413q-145 145 -341 168v-14q150 -37 268 -154q56 -56 94 -121h4v-6q73 -128 73 -286v-1171q0 -242 -171 -413
q-118 -118 -268 -155v-13v0zM1170 2925q121 0 207 86q85 86 85 207t-85 207q-86 85 -207 85h-366v-585h366zM1389 2637q196 22 341 167q171 172 171 414t-171 413q-145 145 -341 168v-13q150 -37 268 -155q171 -171 171 -413t-171 -414q-118 -117 -268 -154v-13v0zM402 219
l36 585v2487l-36 585l-37 -585v-2487l37 -585v0zM-195 0q81 0 138 171t57 414v2925q0 243 -57 414q-57 172 -138 172h1584q243 0 414 -86q60 -30 99 -65q64 -38 120 -94t94 -119q35 -39 65 -101q73 -144 84 -340h2q0 -19 -1 -37q1 -18 1 -36v0h-2q-11 -196 -84 -341
q-28 -56 -60 -94q-19 -34 -50 -65q-72 -72 -170 -83v-4q98 -12 170 -84q31 -30 51 -65q31 -38 59 -94q73 -144 84 -340h2v-1171q0 -243 -86 -413v0q-30 -62 -65 -101q-38 -63 -94 -119t-120 -94q-39 -35 -99 -65q-171 -85 -414 -85h-1584z" />
    <glyph glyph-name="C" unicode="C" 
d="M1426 301q173 31 304 163q137 136 164 318l-81 -40q-18 -80 -58 -151v-6h-4q-38 -65 -94 -121q-103 -103 -231 -144v-19v0zM841 301v19q-128 41 -231 144q-172 171 -172 413v2341q0 242 172 413q103 103 231 144v19q-173 -31 -304 -163q-172 -171 -172 -413v-2341
q0 -242 172 -413q131 -132 304 -163v0zM1894 3313q-27 182 -164 318q-131 132 -304 163v-19q128 -41 231 -144q56 -56 94 -121h4v-6q40 -71 58 -151l81 -40v0zM841 0v0v0q-220 6 -377 85q-61 30 -100 65q-64 38 -120 94t-93 119q-35 39 -66 101q-85 170 -85 413v2341
q0 243 85 413q31 62 66 101q37 63 93 119t120 94q39 35 100 65q157 79 377 85v1h585v-1q219 -6 377 -85q60 -30 99 -65q64 -38 120 -94t94 -119q35 -39 65 -101q86 -170 86 -413v0l-585 -146l-293 146q30 0 52 21q12 13 18 28q-15 90 -82 158q-86 85 -207 85h-73
q-121 0 -207 -85q-86 -86 -86 -207v-2341q0 -121 86 -207q86 -85 207 -85h73q121 0 207 85q67 68 82 158q-6 15 -18 28q-22 21 -52 21l293 147l585 -147q0 -243 -86 -413v0q-30 -62 -65 -101q-38 -63 -94 -119t-120 -94q-39 -35 -99 -65q-158 -79 -377 -85v0h-585z" />
    <glyph glyph-name="D" unicode="D" 
d="M1170 585q121 0 207 85q85 86 85 207v2341q0 121 -85 207q-86 85 -207 85h-366v-2925h366zM1389 296q196 23 341 168q171 171 171 413v2341q0 242 -171 413q-145 145 -341 168v-13q150 -37 268 -155q171 -171 171 -413v-2341q0 -242 -171 -413q-118 -118 -268 -155v-13v0
zM402 219l36 585v2487l-36 585l-37 -585v-2487l37 -585v0zM-195 0q81 0 138 171t57 414v2925q0 243 -57 414q-57 172 -138 172h1584q243 0 414 -86q60 -30 99 -65q64 -38 120 -94t94 -119q35 -39 65 -101q86 -170 86 -413v0v-2341q0 -243 -86 -413v0q-30 -62 -65 -101
q-38 -63 -94 -119t-120 -94q-39 -35 -99 -65q-171 -85 -414 -85h-1584z" />
    <glyph glyph-name="E" unicode="E" horiz-adv-x="2340" 
d="M402 219l36 585v2487l-36 585l-37 -585v-2487l37 -585v0zM-195 0q81 0 138 171t57 414v2925q0 243 -57 414q-57 172 -138 172h2243l-293 -586h-951v-877h1244l-293 -585h-951v-1463h1244l-293 -585h-1950z" />
    <glyph glyph-name="F" unicode="F" horiz-adv-x="2340" 
d="M402 219l36 585v2487l-36 585l-37 -585v-2487l37 -585v0zM-195 0q81 0 138 171t57 414v2925q0 243 -57 414q-57 172 -138 172h2243l-293 -586h-951v-877h1244l-293 -585h-951v-1463q0 -243 57 -414t138 -171h-1194z" />
    <glyph glyph-name="G" unicode="G" horiz-adv-x="2779" 
d="M1426 301q173 31 304 163q171 171 171 413v878l-36 585l-37 -585v-878q0 -158 -73 -286v-6h-4q-38 -65 -94 -121q-103 -103 -231 -144v-19v0zM841 301v19q-128 41 -231 144q-172 171 -172 413v2341q0 242 172 413q103 103 231 144v19q-173 -31 -304 -163
q-172 -171 -172 -413v-2341q0 -242 172 -413q131 -132 304 -163v0zM1894 3313q-27 182 -164 318q-131 132 -304 163v-19q128 -41 231 -144q56 -56 94 -121h4v-6q40 -71 58 -151l81 -40v0zM841 0v0v0q-220 6 -377 85q-61 30 -100 65q-64 38 -120 94t-93 119q-35 39 -66 101
q-85 170 -85 413v2341q0 243 85 413q31 62 66 101q37 63 93 119t120 94q39 35 100 65q157 79 377 85v1h585v-1q219 -6 377 -85q60 -30 99 -65q64 -38 120 -94t94 -119q35 -39 65 -101q86 -170 86 -413v0l-585 -146l-293 146q30 0 52 21q12 13 18 28q-15 90 -82 158
q-86 85 -207 85h-73q-121 0 -207 -85q-86 -86 -86 -207v-2341q0 -121 86 -207q86 -85 207 -85h73q121 0 207 85q85 86 85 207v1171h-585l293 585h1463l-293 -585h-73v-1171q0 -243 -86 -413v0q-30 -62 -65 -101q-38 -63 -94 -119t-120 -94q-39 -35 -99 -65
q-158 -79 -377 -85v0h-585z" />
    <glyph glyph-name="H" unicode="H" horiz-adv-x="2633" 
d="M402 219l36 585v2487l-36 585l-37 -585v-2487l37 -585v0zM1865 219l36 585v2487l-36 585l-37 -585v-2487l37 -585v0zM-195 0q81 0 138 171t57 414v2925q0 243 -57 414q-57 172 -138 172h1145q-60 0 -103 -172q-43 -171 -43 -414v-877h658v877q0 243 -57 414
q-57 172 -138 172h1195q-81 0 -138 -172q-57 -171 -57 -414v-2925q0 -243 57 -414t138 -171h-1195q81 0 138 171t57 414v1463h-658v-1463q0 -243 43 -414t103 -171h-1145z" />
    <glyph glyph-name="I" unicode="I" horiz-adv-x="1170" 
d="M402 219l36 585v2487l-36 585l-37 -585v-2487l37 -585v0zM-195 0q81 0 138 171t57 414v2925q0 243 -57 414q-57 172 -138 172h1194q-81 0 -138 -172q-57 -171 -57 -414v-2925q0 -243 57 -414t138 -171h-1194z" />
    <glyph glyph-name="J" unicode="J" 
d="M841 301v19q-128 41 -231 144q-57 56 -95 121h-3v6h-1q-35 62 -53 130l-82 41q31 -169 161 -298q131 -132 304 -163v0zM1426 301q173 31 304 163q171 171 171 413v2414l-36 585l-37 -585v-2414q0 -242 -171 -413q-103 -103 -231 -144v-19v0zM841 0v0v0q-220 6 -377 85
q-61 30 -100 65q-64 38 -120 94t-93 119q-35 39 -66 101q-85 170 -85 413l585 147l292 -147q-30 0 -52 -21q-12 -13 -17 -28q14 -90 82 -158q86 -85 207 -85h73q121 0 207 85q85 86 85 207v2633q0 243 -57 414q-57 172 -138 172h1195q-81 0 -138 -172q-57 -171 -57 -414
v-2633q0 -243 -86 -413v0q-30 -62 -65 -101q-38 -63 -94 -119t-120 -94q-39 -35 -99 -65q-158 -79 -377 -85v0h-585z" />
    <glyph glyph-name="K" unicode="K" horiz-adv-x="2633" 
d="M1865 146v146l-37 293l-548 2194l365 731l73 293l-512 -1024l659 -2633v0zM402 219l36 585v2487l-36 585l-37 -585v-2487l37 -585v0zM-195 0q81 0 138 171t57 414v2925q0 243 -57 414q-57 172 -138 172h1145q-60 0 -103 -172q-43 -171 -43 -414v-585h110l585 1171h951
q-100 0 -175 -58l-630 -1259l666 -2664v0q76 -115 175 -115h-950l-586 2340h-146v-1755q0 -243 57 -414t138 -171h-1194z" />
    <glyph glyph-name="L" unicode="L" horiz-adv-x="2194" 
d="M402 219l36 585v2487l-36 585l-37 -585v-2487l37 -585v0zM-195 0q81 0 138 171t57 414v2925q0 243 -57 414q-57 172 -138 172h1194q-81 0 -138 -172q-57 -171 -57 -414v-2925h1244l-293 -585h-1950z" />
    <glyph glyph-name="M" unicode="M" horiz-adv-x="3364" 
d="M1462 877v293l-694 2779v-146l36 -293l658 -2633v0zM1462 -585l-877 3510v-2340q0 -243 43 -414q42 -171 103 -171h-877q61 0 104 171q42 171 42 414v2925q0 243 -42 414q-43 172 -104 172h1243l512 -2048l512 2048h951q-61 0 -104 -172q-43 -171 -43 -414v-2925
q0 -243 43 -414t104 -171h-878q60 0 103 171t43 414v2340l-878 -3510v0z" />
    <glyph glyph-name="N" unicode="N" horiz-adv-x="2779" 
d="M2048 877l-1463 2926v0l73 -293l1243 -2486l147 -147v0zM2340 -585l-1755 3510v-2340q0 -243 43 -414q42 -171 103 -171h-877q61 0 104 171q42 171 42 414v2925q0 243 -42 414q-43 172 -104 172h950l951 -1902v1316q0 243 -43 414q-43 172 -103 172h877q-60 0 -103 -172
q-43 -171 -43 -414v-4095v0z" />
    <glyph glyph-name="O" unicode="O" 
d="M1170 585q121 0 207 85q85 86 85 207v2341q0 121 -85 207q-86 85 -207 85h-73q-121 0 -207 -85q-86 -86 -86 -207v-2341q0 -121 86 -207q86 -85 207 -85h73zM841 301v19q-128 41 -231 144q-172 171 -172 413v2341q0 242 172 413q103 103 231 144v19q-173 -31 -304 -163
q-172 -171 -172 -413v-2341q0 -242 172 -413q131 -132 304 -163v0zM1426 301q173 31 304 163q171 171 171 413v2341q0 242 -171 413q-131 132 -304 163v-19q128 -41 231 -144q171 -171 171 -413v-2341q0 -242 -171 -413q-103 -103 -231 -144v-19v0zM841 0v0v0
q-220 6 -377 85q-61 30 -100 65q-64 38 -120 94t-93 119q-35 39 -66 101q-85 170 -85 413v2341q0 243 85 413q31 62 66 101q37 63 93 119t120 94v0q39 35 100 65q157 79 377 85v1h585v-1q219 -6 377 -85q60 -30 99 -65q64 -38 120 -94t94 -119q35 -39 65 -101
q86 -170 86 -413v0v-2341q0 -243 -86 -413v0q-30 -62 -65 -101q-38 -63 -94 -119t-120 -94q-39 -35 -99 -65q-158 -79 -377 -85v0h-585z" />
    <glyph glyph-name="P" unicode="P" 
d="M1170 2340q121 0 207 86q85 86 85 207v585q0 121 -85 207q-86 85 -207 85h-366v-1170h366zM1389 2052q196 22 341 167q171 171 171 414v585q0 242 -171 413q-145 145 -341 168v-13q150 -37 268 -155q171 -171 171 -413v-585q0 -243 -171 -414q-118 -117 -268 -154v-13v0z
M402 219l36 585v2487l-36 585l-37 -585v-2487l37 -585v0zM-195 0q81 0 138 171t57 414v2925q0 243 -57 414q-57 172 -138 172h1584q243 0 414 -86q60 -30 99 -65q64 -38 120 -94t94 -119q35 -39 65 -101q86 -170 86 -413v0v-585q0 -243 -86 -414v0q-30 -61 -65 -101
q-38 -63 -94 -118q-56 -57 -120 -95q-39 -34 -99 -64q-171 -86 -414 -86h-585v-1170q0 -243 57 -414t138 -171h-1194z" />
    <glyph glyph-name="Q" unicode="Q" 
d="M1280 -438v146l-37 292h-73l110 -438v0zM1170 585q121 0 207 85q85 86 85 207v2341q0 121 -85 207q-86 85 -207 85h-73q-121 0 -207 -85q-86 -86 -86 -207v-2341q0 -121 86 -207q86 -85 207 -85h73zM841 301v19v0q-128 41 -231 144q-172 171 -172 413v2341q0 242 172 413
q103 103 231 144v19q-173 -31 -304 -163q-172 -171 -172 -413v-2341q0 -242 172 -413q131 -132 304 -163v0zM1426 301q173 31 304 163q171 171 171 413v2341q0 242 -171 413q-131 132 -304 163v-19q128 -41 231 -144q171 -171 171 -413v-2341q0 -242 -171 -413
q-103 -103 -231 -144v-19v0zM950 -585l-146 587v0q-196 11 -340 83q-61 30 -100 65q-64 38 -120 94t-93 119q-35 39 -66 101q-85 170 -85 413v2341q0 243 85 413q31 62 66 101q37 63 93 119t120 94q39 35 100 65q157 79 377 85v1h585v-1q219 -6 377 -85q60 -30 99 -65
q64 -38 120 -94t94 -119q35 -39 65 -101q86 -170 86 -413v0v-2341q0 -243 -86 -413v0q-30 -62 -65 -101q-38 -63 -94 -119t-120 -94q-39 -35 -99 -65q-90 -45 -199 -66l122 -488v0q76 -116 175 -116h-951z" />
    <glyph glyph-name="R" unicode="R" horiz-adv-x="2633" 
d="M1865 146v146l-37 293l-366 1465q-36 -2 -73 -2l476 -1902v0zM1170 2633q121 0 207 85q85 86 85 207v293q0 121 -85 207q-86 85 -207 85h-366v-877h366zM1389 2344q196 23 341 168q171 171 171 413v293q0 242 -171 413q-145 145 -341 168v-13q150 -37 268 -155
q171 -171 171 -413v-293q0 -158 -73 -286v-6h-4q-38 -65 -94 -121q-118 -118 -268 -155v-13v0zM402 219l36 585v2487l-36 585l-37 -585v-2487l37 -585v0zM-195 0q81 0 138 171t57 414v2925q0 243 -57 414q-57 172 -138 172h1584q243 0 414 -86q60 -30 99 -65q64 -38 120 -94
t94 -119q35 -39 65 -101q86 -170 86 -413v0v-293q0 -243 -86 -413q-30 -62 -65 -101q-38 -63 -94 -119t-119 -94q-38 -34 -97 -63l505 -2020v0q76 -115 175 -115h-950l-512 2048h-220v-1463q0 -243 57 -414t138 -171h-1194z" />
    <glyph glyph-name="S" unicode="S" 
d="M841 301v19v0q-128 41 -231 144q-57 56 -95 121h-3v6h-1q-35 62 -53 130v0l-82 41v0q31 -169 161 -298q131 -132 304 -163v0zM1426 301q173 31 304 163q171 171 171 413v585q0 243 -171 414q-131 131 -304 162v0v-18v0q128 -41 231 -144q171 -171 171 -414v-585
q0 -242 -171 -413q-103 -103 -231 -144v0v-19v0zM1894 3313q-27 182 -164 318q-131 132 -304 163v0v-19v0q128 -41 231 -144q56 -56 94 -121h4v-6v0q40 -71 58 -151v0l81 -40v0zM841 2057v18v0q-128 41 -231 144q-172 171 -172 414v585q0 242 172 413q103 103 231 144v0v19
v0q-173 -31 -304 -163q-172 -171 -172 -413v-585q0 -243 172 -414q131 -131 304 -162v0zM841 0v0v0q-220 6 -377 85q-61 30 -100 65v0q-64 38 -120 94t-93 119v0q-35 39 -66 101q-85 170 -85 413l585 147l292 -147q-30 0 -52 -21q-12 -13 -17 -28v0q14 -90 82 -158
q86 -85 207 -85h73q121 0 207 85q85 86 85 207v585q0 121 -85 207q-86 86 -207 86h-329v0v0q-220 6 -377 86q-61 30 -100 64v0q-64 38 -120 95q-56 55 -93 118v0q-35 40 -66 101q-85 171 -85 414v585q0 243 85 413v0v0q31 62 66 101v0q37 63 93 119t120 94v0q39 35 100 65
q157 79 377 85v0v1h585v-1v0q219 -6 377 -85q60 -30 99 -65v0q64 -38 120 -94t94 -119v0q35 -39 65 -101q86 -170 86 -413v0v0l-585 -146l-293 146q30 0 52 21q12 13 18 28v0q-15 90 -82 158q-86 85 -207 85h-73q-121 0 -207 -85q-86 -86 -86 -207v-585q0 -121 86 -207
t207 -86h329v0v0q219 -6 377 -86q60 -30 99 -64v0q64 -38 120 -95q56 -55 94 -118v0q35 -40 65 -101q86 -171 86 -413v0v-1v-585q0 -243 -86 -413v0v0q-30 -62 -65 -101v0q-38 -63 -94 -119t-120 -94v0q-39 -35 -99 -65q-158 -79 -377 -85v0v0h-585z" />
    <glyph glyph-name="T" unicode="T" horiz-adv-x="2925" 
d="M1280 219l36 585v2487l-36 585l-37 -585v-2487l37 -585v0zM682 0q81 0 138 171t57 414v2925h-877l292 586h2341l-293 -586h-658v-2925q0 -243 57 -414t138 -171h-1195z" />
    <glyph glyph-name="U" unicode="U" horiz-adv-x="2633" 
d="M841 301v19q-128 41 -231 144q-172 171 -172 413v2414l-36 585l-37 -585v-2414q0 -242 172 -413q131 -132 304 -163v0zM1426 301q173 31 304 163q171 171 171 413v2414l-36 585l-37 -585v-2414q0 -242 -171 -413q-103 -103 -231 -144v-19v0zM841 0v0v0q-220 6 -377 85
q-61 30 -100 65q-64 38 -120 94t-93 119q-35 39 -66 101q-85 170 -85 413v2633q0 243 -57 414q-57 172 -138 172h1145q-60 0 -103 -172q-43 -171 -43 -414v-2633q0 -121 86 -207q86 -85 207 -85h73q121 0 207 85q85 86 85 207v2633q0 243 -57 414q-57 172 -138 172h1195
q-81 0 -138 -172q-57 -171 -57 -414v-2633q0 -243 -86 -413v0q-30 -62 -65 -101q-38 -63 -94 -119t-120 -94q-39 -35 -99 -65q-158 -79 -377 -85v0h-585z" />
    <glyph glyph-name="V" unicode="V" horiz-adv-x="2633" 
d="M1170 877v293l-695 2779v-146l37 -293l658 -2633v0zM1170 -585l-1142 4565q-74 116 -174 116h1096q-60 0 -103 -43q-15 -15 -24 -32l493 -1973l494 1973q-10 17 -25 32q-43 43 -103 43h804q-99 0 -175 -116l-1141 -4565v0z" />
    <glyph glyph-name="W" unicode="W" horiz-adv-x="3803" 
d="M1170 877v293l-695 2779v-146l37 -293l658 -2633v0zM2340 877v293l-695 2779v-146l37 -293l658 -2633v0zM1170 -585l-1142 4565q-74 116 -174 116h1096q-60 0 -103 -43q-15 -15 -24 -32l457 -1827l182 731l-263 1055q-76 116 -175 116h1097q-61 0 -104 -43
q-15 -15 -24 -32l493 -1973l494 1973q-10 17 -24 32q-43 43 -104 43h805q-100 0 -176 -116l-1141 -4565l-585 2340l-585 -2340v0z" />
    <glyph glyph-name="X" unicode="X" horiz-adv-x="2633" 
d="M1865 146v146l-37 293l-366 1463v-293l403 -1609v0zM877 2048v292l-402 1609v-146l37 -293l365 -1462v0zM-146 0q100 0 174 115v0l484 1933l-484 1932q-74 116 -174 116h1096q-60 0 -103 -43q-15 -15 -24 -32l457 -1827l456 1827q-9 17 -24 32q-43 43 -103 43h877
q-99 0 -175 -116l-483 -1932l483 -1933q76 -115 175 -115h-950l-476 1901l-475 -1901h-731z" />
    <glyph glyph-name="Y" unicode="Y" horiz-adv-x="2633" 
d="M1170 219l36 585v1756l-621 1243v0l73 -293l475 -950v-1756l37 -585v0zM572 0q81 0 138 171q58 171 58 414v1975l-740 1478q-74 58 -174 58h1096q-60 0 -103 -43t-43 -104l402 -804l403 804q0 61 -43 104t-104 43h1024q-99 0 -175 -58l-739 -1478v-1975q0 -243 57 -414
t138 -171h-1195z" />
    <glyph glyph-name="Z" unicode="Z" horiz-adv-x="2633" 
d="M292 146l1682 3364l74 293v0l-1683 -3365l-73 -292v0zM0 0v438l1536 3072h-1536l292 586h2048v-586l-1463 -2925h1463l-292 -585h-2048z" />
    <glyph glyph-name="a" unicode="a" horiz-adv-x="2340" 
d="M1060 1316l-183 732l-183 -732h366zM1572 731v146l-36 293l-512 2048v-293l548 -2194v0zM-146 585q100 0 174 116v0l849 3395h293l849 -3395q75 -116 175 -116h-1097q60 0 103 42q15 15 24 32l-54 218h-585l-55 -218v0q10 -17 24 -32q43 -42 104 -42h-804z" />
    <glyph glyph-name="b" unicode="b" 
d="M1170 1170q121 0 207 85q85 86 85 207v586q0 121 -85 207q-86 85 -207 85h-366v-1170h366zM1389 881q196 23 341 168q171 171 171 413v586q0 242 -171 413q-145 145 -341 168v-14q150 -37 268 -154q56 -56 94 -121h4v-6q73 -128 73 -286v-586q0 -242 -171 -413
q-118 -118 -268 -155v-13v0zM1170 2925q121 0 207 86q85 86 85 207t-85 207q-86 85 -207 85h-366v-585h366zM1389 2637q196 22 341 167q171 172 171 414t-171 413q-145 145 -341 168v-13q150 -37 268 -155q171 -171 171 -413t-171 -414q-118 -117 -268 -154v-13v0zM402 804
l36 585v1902l-36 585l-37 -585v-1902l37 -585v0zM-195 585q81 0 138 171q57 172 57 414v2340q0 243 -57 414q-57 172 -138 172h1584q243 0 414 -86q60 -30 99 -65q64 -38 120 -94t94 -119q35 -39 65 -101q73 -144 84 -340h2q0 -19 -1 -37q1 -18 1 -36v0h-2
q-11 -196 -84 -341q-28 -56 -60 -94q-19 -34 -50 -65q-72 -72 -170 -83v-4q98 -12 170 -84q31 -30 51 -65q31 -38 59 -94q73 -144 84 -340h2v-586q0 -242 -86 -413v0q-30 -61 -65 -101q-38 -63 -94 -119t-120 -94q-39 -34 -99 -65q-171 -85 -414 -85h-1584z" />
    <glyph glyph-name="c" unicode="c" 
d="M1426 887q173 30 304 162q129 129 161 298l-83 -41q-18 -68 -53 -130v-6h-4q-38 -65 -94 -121q-103 -103 -231 -144v-18v0zM841 887v18q-128 41 -231 144q-172 171 -172 413v1756q0 242 172 413q103 103 231 144v19q-173 -31 -304 -163q-172 -171 -172 -413v-1756
q0 -242 172 -413q131 -132 304 -162v0zM1891 3333q-32 169 -161 298q-131 132 -304 163v-19q128 -41 231 -144q56 -56 94 -121h4v-6q35 -62 53 -130l83 -41v0zM841 585v0v0q-220 6 -377 85q-61 31 -100 65q-64 38 -120 94t-93 119q-35 40 -66 101q-85 171 -85 413v1756
q0 243 85 413q31 62 66 101v0q37 63 93 119t120 94v0q39 35 100 65q157 79 377 85v1h585v-1q219 -6 377 -85q60 -30 99 -65q64 -38 120 -94t94 -119q35 -39 65 -101q86 -170 86 -413v0l-585 -146l-293 146q30 0 52 21q12 13 18 28q-15 90 -82 158q-86 85 -207 85h-73
q-121 0 -207 -85q-86 -86 -86 -207v-1756q0 -121 86 -206q86 -86 207 -86h73q121 0 207 85q67 68 82 158q-6 16 -18 28q-22 21 -52 21l293 147l585 -147q0 -242 -86 -413v0q-30 -61 -65 -101q-38 -63 -94 -119t-120 -94q-39 -34 -99 -65q-158 -79 -377 -85v0h-585z" />
    <glyph glyph-name="d" unicode="d" 
d="M1170 1170q121 0 207 85q85 86 85 207v1756q0 121 -85 207q-86 85 -207 85h-366v-2340h366zM1389 881q196 23 341 168q171 171 171 413v1756q0 242 -171 413q-145 145 -341 168v-13q150 -37 268 -155q171 -171 171 -413v-1756q0 -242 -171 -413q-118 -118 -268 -155v-13
v0zM402 804l36 585v1902l-36 585l-37 -585v-1902l37 -585v0zM-195 585q81 0 138 171q57 172 57 414v2340q0 243 -57 414q-57 172 -138 172h1584q243 0 414 -86q60 -30 99 -65q64 -38 120 -94t94 -119q35 -39 65 -101q86 -170 86 -413v0v-1756q0 -242 -86 -413v0
q-30 -61 -65 -101q-38 -63 -94 -119t-120 -94q-39 -34 -99 -65q-171 -85 -414 -85h-1584z" />
    <glyph glyph-name="e" unicode="e" horiz-adv-x="2340" 
d="M402 804l36 585v1902l-36 585l-37 -585v-1902l37 -585v0zM-195 585q81 0 138 171q57 172 57 414v2340q0 243 -57 414q-57 172 -138 172h2243l-293 -586h-951v-877h1244l-293 -585h-951v-878h1244l-293 -585h-1950z" />
    <glyph glyph-name="f" unicode="f" horiz-adv-x="2340" 
d="M402 804l36 585v1902l-36 585l-37 -585v-1902l37 -585v0zM-195 585q81 0 138 171q57 172 57 414v2340q0 243 -57 414q-57 172 -138 172h2243l-293 -586h-951v-877h1244l-293 -585h-951v-878q0 -242 57 -414q57 -171 138 -171h-1194z" />
    <glyph glyph-name="g" unicode="g" horiz-adv-x="2779" 
d="M1426 887q173 30 304 162q171 171 171 413v293l-36 585l-37 -585v-293q0 -158 -73 -286v-6h-4q-38 -65 -94 -121q-103 -103 -231 -144v-18v0zM841 887v18q-128 41 -231 144q-172 171 -172 413v1756q0 242 172 413q103 103 231 144v19q-173 -31 -304 -163
q-172 -171 -172 -413v-1756q0 -242 172 -413q131 -132 304 -162v0zM1891 3333q-32 169 -161 298q-131 132 -304 163v-19q128 -41 231 -144q56 -56 94 -121h4v-6q35 -62 53 -130l83 -41v0zM841 585v0v0q-220 6 -377 85q-61 31 -100 65q-64 38 -120 94t-93 119q-35 40 -66 101
q-85 171 -85 413v1756q0 243 85 413q31 62 66 101q37 63 93 119t120 94q39 35 100 65q157 79 377 85v1h585v-1q219 -6 377 -85q60 -30 99 -65q64 -38 120 -94t94 -119q35 -39 65 -101q86 -170 86 -413v0l-585 -146l-293 146q30 0 52 21q12 13 18 28q-15 90 -82 158
q-86 85 -207 85h-73q-121 0 -207 -85q-86 -86 -86 -207v-1756q0 -121 86 -206q86 -86 207 -86h73q121 0 207 85q85 86 85 207v586h-585l293 585h1463l-293 -585h-73v-586q0 -242 -86 -413v0q-30 -61 -65 -101q-38 -63 -94 -119t-120 -94q-39 -34 -99 -65q-158 -79 -377 -85
v0h-585z" />
    <glyph glyph-name="h" unicode="h" horiz-adv-x="2633" 
d="M402 804l36 585v1902l-36 585l-37 -585v-1902l37 -585v0zM1865 804l36 585v1902l-36 585l-37 -585v-1902l37 -585v0zM-195 585q81 0 138 171q57 172 57 414v2340q0 243 -57 414q-57 172 -138 172h1145q-60 0 -103 -172q-43 -171 -43 -414v-877h658v877q0 243 -57 414
q-57 172 -138 172h1195q-81 0 -138 -172q-57 -171 -57 -414v-2340q0 -242 57 -414q57 -171 138 -171h-1195q81 0 138 171q57 172 57 414v878h-658v-878q0 -242 43 -414q43 -171 103 -171h-1145z" />
    <glyph glyph-name="i" unicode="i" horiz-adv-x="1170" 
d="M402 804l36 585v1902l-36 585l-37 -585v-1902l37 -585v0zM-195 585q81 0 138 171q57 172 57 414v2340q0 243 -57 414q-57 172 -138 172h1194q-81 0 -138 -172q-57 -171 -57 -414v-2340q0 -242 57 -414q57 -171 138 -171h-1194z" />
    <glyph glyph-name="j" unicode="j" horiz-adv-x="2633" 
d="M841 887v18v0q-128 41 -231 144q-57 56 -95 121h-3v6q-36 62 -54 130l-82 41q31 -169 161 -298q131 -132 304 -162v0zM1426 887q173 30 304 162q171 171 171 413v1829l-36 585l-37 -585v-1829q0 -242 -171 -413q-103 -103 -231 -144v-18v0zM841 585v0v0q-220 6 -377 85
q-61 31 -100 65q-64 38 -120 94t-93 119q-35 40 -66 101q-85 171 -85 413l585 147l292 -147q-30 0 -52 -21q-12 -12 -17 -28q14 -90 82 -158q86 -85 207 -85h73q121 0 207 86q85 85 85 206v2048q0 243 -57 414q-57 172 -138 172h1195q-81 0 -138 -172q-57 -171 -57 -414
v-2048q0 -242 -86 -413v0q-30 -61 -65 -101q-38 -63 -94 -119t-120 -94q-39 -34 -99 -65q-158 -79 -377 -85v0h-585z" />
    <glyph glyph-name="k" unicode="k" horiz-adv-x="2633" 
d="M1865 731v146l-37 293l-439 1755l293 585l73 293l-439 -878l549 -2194v0zM402 804l36 585v1902l-36 585l-37 -585v-1902l37 -585v0zM-195 585q81 0 138 171q57 172 57 414v2340q0 243 -57 414q-57 172 -138 172h1145q-60 0 -103 -172q-43 -171 -43 -414v-585h146
l586 1171h950q-99 0 -175 -58l-556 -1113l556 -2224v0q76 -116 175 -116h-950l-439 1755h-293v-1170q0 -242 57 -414q57 -171 138 -171h-1194z" />
    <glyph glyph-name="l" unicode="l" horiz-adv-x="2194" 
d="M402 804l36 585v1902l-36 585l-37 -585v-1902l37 -585v0zM-195 585q81 0 138 171q57 172 57 414v2340q0 243 -57 414q-57 172 -138 172h1194q-81 0 -138 -172q-57 -171 -57 -414v-2340h1244l-293 -585h-1950z" />
    <glyph glyph-name="m" unicode="m" horiz-adv-x="2998" 
d="M1316 1462v293l-548 2194v-146l36 -293l512 -2048v0zM1316 0l-731 2925v-1755q0 -242 43 -414q42 -171 103 -171h-877q61 0 104 171q42 172 42 414v2340q0 243 -42 414q-43 172 -104 172h1243l365 -1463l366 1463h951q-61 0 -103 -172q-43 -171 -43 -414v-2340
q0 -242 43 -414q42 -171 103 -171h-878q61 0 104 171q43 172 43 414v1755l-732 -2925v0z" />
    <glyph glyph-name="n" unicode="n" horiz-adv-x="2450" 
d="M1755 1462l-1170 2341v0l73 -293l951 -1901l146 -147v0zM2048 0l-1463 2925v-1755q0 -242 43 -414q42 -171 103 -171h-877q61 0 104 171q42 172 42 414v2340q0 243 -42 414q-43 172 -104 172h950l658 -1317v731q0 243 -43 414q-42 172 -103 172h878q-61 0 -104 -172
q-42 -171 -42 -414v-3510v0z" />
    <glyph glyph-name="o" unicode="o" 
d="M1170 1170q121 0 207 86q85 85 85 206v1756q0 121 -85 207q-86 85 -207 85h-73q-121 0 -207 -85q-86 -86 -86 -207v-1756q0 -121 86 -207q86 -85 207 -85h73zM841 887v18v0q-128 41 -231 144q-172 171 -172 413v1756q0 242 172 413q103 103 231 144v19
q-173 -31 -304 -163q-172 -171 -172 -413v-1756q0 -242 172 -413q131 -132 304 -162v0zM1426 887q173 30 304 162q171 171 171 413v1756q0 242 -171 413q-131 132 -304 163v-19q128 -41 231 -144q171 -171 171 -413v-1756q0 -242 -171 -413q-103 -103 -231 -144v-18v0z
M841 585v0v0q-220 6 -377 85q-61 31 -100 65q-64 38 -120 94t-93 119q-35 40 -66 101q-85 171 -85 413v1756q0 243 85 413q31 62 66 101q37 63 93 119t120 94v0q39 35 100 65q157 79 377 85v1h585v-1q219 -6 377 -85q60 -30 99 -65q64 -38 120 -94t94 -119q35 -39 65 -101
q86 -170 86 -413v0v-1756q0 -242 -86 -413v0q-30 -61 -65 -101q-38 -63 -94 -119t-120 -94q-39 -34 -99 -65q-158 -79 -377 -85v0h-585z" />
    <glyph glyph-name="p" unicode="p" 
d="M1170 2633q121 0 207 85q85 86 85 207v293q0 121 -85 207q-86 85 -207 85h-366v-877h366zM1389 2344q196 23 341 168q171 171 171 413v293q0 242 -171 413q-145 145 -341 168v-13q150 -37 268 -155q171 -171 171 -413v-293q0 -158 -73 -286v-6h-4q-38 -65 -94 -121
q-118 -118 -268 -155v-13v0zM402 804l36 585v1902l-36 585l-37 -585v-1902l37 -585v0zM-195 585q81 0 138 171q57 172 57 414v2340q0 243 -57 414q-57 172 -138 172h1584q243 0 414 -86q60 -30 99 -65q64 -38 120 -94t94 -119q35 -39 65 -101q86 -170 86 -413v0v-293
q0 -243 -86 -413q-30 -62 -65 -101q-38 -63 -94 -119t-119 -94q-39 -35 -100 -65q-172 -85 -414 -85h-585v-878q0 -242 57 -414q57 -171 138 -171h-1194z" />
    <glyph glyph-name="q" unicode="q" 
d="M1280 146v146l-37 293h-73l110 -439v0zM1170 1170q121 0 207 86q85 85 85 206v1756q0 121 -85 207q-86 85 -207 85h-73q-121 0 -207 -85q-86 -86 -86 -207v-1756q0 -121 86 -207q86 -85 207 -85h73zM841 887v18q-128 41 -231 144q-172 171 -172 413v1756q0 242 172 413
q103 103 231 144v19q-173 -31 -304 -163q-172 -171 -172 -413v-1756q0 -242 172 -413q131 -132 304 -162v0zM1426 887q173 30 304 162q171 171 171 413v1756q0 242 -171 413q-131 132 -304 163v-19q128 -41 231 -144q171 -171 171 -413v-1756q0 -242 -171 -413
q-103 -103 -231 -144v-18v0zM950 0l-146 587v0q-196 11 -340 83q-61 31 -100 65q-64 38 -120 94t-93 119q-35 40 -66 101q-85 171 -85 413v1756q0 243 85 413q31 62 66 101q37 63 93 119t120 94v0q39 35 100 65q157 79 377 85v1h585v-1q219 -6 377 -85q60 -30 99 -65
q64 -38 120 -94t94 -119q35 -39 65 -101q86 -170 86 -413v0v-1756q0 -242 -86 -413v0q-30 -61 -65 -101q-38 -63 -94 -119t-120 -94q-39 -34 -99 -65q-90 -45 -199 -66l122 -489v0q76 -115 175 -115h-951z" />
    <glyph glyph-name="r" unicode="r" horiz-adv-x="2633" 
d="M1865 731v146l-37 293l-224 897q-99 -19 -215 -19h147l329 -1317v0zM1170 2633q121 0 207 85q85 86 85 207v293q0 121 -85 207q-86 85 -207 85h-366v-877h366zM1389 2344q196 23 341 168q171 171 171 413v293q0 242 -171 413q-145 145 -341 168v-13q150 -37 268 -155
q171 -171 171 -413v-293q0 -158 -73 -286v-6h-4q-38 -65 -94 -121q-118 -118 -268 -155v-13v0zM402 804l36 585v1902l-36 585l-37 -585v-1902l37 -585v0zM-195 585q81 0 138 171q57 172 57 414v2340q0 243 -57 414q-57 172 -138 172h1584q243 0 414 -86q60 -30 99 -65
q64 -38 120 -94t94 -119q35 -39 65 -101q86 -170 86 -413v0v-293q0 -243 -86 -413q-30 -62 -65 -101q-38 -63 -94 -119q-43 -43 -90 -75l379 -1516v0q76 -116 175 -116h-950l-366 1463h-366v-878q0 -242 57 -414q57 -171 138 -171h-1194z" />
    <glyph glyph-name="s" unicode="s" 
d="M841 887v18v0q-128 41 -231 144q-57 56 -95 121h-3v6h-1q-35 62 -53 130v0l-82 41v0q31 -169 161 -298q131 -132 304 -162v0zM1426 887q173 30 304 162q171 171 171 413v293q0 242 -171 414q-131 131 -304 162v0v-18v0q128 -42 231 -144q171 -172 171 -414v-293
q0 -242 -171 -413q-103 -103 -231 -144v0v-18v0zM804 2732v0v0v0v0zM1891 3333q-32 169 -161 298q-131 132 -304 163v0v-19v0q128 -41 231 -144q56 -56 94 -121h4v-6v0q35 -62 53 -130v0l83 -41v0zM841 2349v19v0q-128 41 -231 144q-172 171 -172 413v293q0 242 172 413
q103 103 231 144v0v19v0q-173 -31 -304 -163q-172 -171 -172 -413v-293q0 -242 172 -413q131 -132 304 -163v0zM841 585v0v0q-220 6 -377 85q-61 31 -100 65v0q-64 38 -120 94t-93 119v0q-35 40 -66 101q-85 171 -85 413l585 147l292 -147q-30 0 -52 -21q-12 -12 -17 -28v0
q14 -90 82 -158q86 -85 207 -85h73q121 0 207 86q85 85 85 206v293q0 121 -85 207q-86 86 -207 86h-329v0v0q-220 6 -377 85q-61 30 -100 65v0q-64 38 -120 94t-93 119v0q-35 39 -66 101q-85 171 -85 413v293q0 243 85 413v0v0q31 62 66 101v0q37 63 93 119t120 94v0
q39 35 100 65q157 79 377 85v0v1h585v-1v0q219 -6 377 -85q60 -30 99 -65v0q64 -38 120 -94t94 -119v0q35 -39 65 -101q86 -170 86 -413v0v0l-585 -146l-293 146q30 0 52 21q12 13 18 28v0q-15 90 -82 158q-86 85 -207 85h-73q-121 0 -207 -85q-86 -86 -86 -207v-293
q0 -121 86 -207q86 -85 207 -85h329v-1v0q219 -6 377 -85q60 -30 99 -65v0q64 -38 120 -94t94 -119v0q35 -39 65 -100q86 -171 86 -414v0v0v-293q0 -242 -86 -413v0v0q-30 -61 -65 -101v0q-38 -63 -94 -119t-120 -94v0q-39 -34 -99 -65q-158 -79 -377 -85v0v0h-585z" />
    <glyph glyph-name="t" unicode="t" horiz-adv-x="2925" 
d="M1280 804l36 585v1902l-36 585l-37 -585v-1902l37 -585v0zM682 585q81 0 138 171q57 172 57 414v2340h-877l292 586h2341l-293 -586h-658v-2340q0 -242 57 -414q57 -171 138 -171h-1195z" />
    <glyph glyph-name="u" unicode="u" horiz-adv-x="2633" 
d="M841 887v18v0q-128 41 -231 144q-172 171 -172 413v1829l-36 585l-37 -585v-1829q0 -242 172 -413q131 -132 304 -162v0zM1426 887q173 30 304 162q171 171 171 413v1829l-36 585l-37 -585v-1829q0 -242 -171 -413q-103 -103 -231 -144v-18v0zM841 585v0v0
q-220 6 -377 85q-61 31 -100 65q-64 38 -120 94t-93 119q-35 40 -66 101q-85 171 -85 413v2048q0 243 -57 414q-57 172 -138 172h1145q-60 0 -103 -172q-43 -171 -43 -414v-2048q0 -121 86 -207q86 -85 207 -85h73q121 0 207 86q85 85 85 206v2048q0 243 -57 414
q-57 172 -138 172h1195q-81 0 -138 -172q-57 -171 -57 -414v-2048q0 -242 -86 -413v0q-30 -61 -65 -101q-38 -63 -94 -119t-120 -94q-39 -34 -99 -65q-158 -79 -377 -85v0h-585z" />
    <glyph glyph-name="v" unicode="v" horiz-adv-x="2340" 
d="M1024 1462v293l-549 2194v-146l37 -293l512 -2048v0zM1024 0l-996 3980q-74 116 -174 116h1096q-60 0 -103 -43q-15 -15 -24 -32l347 -1388l347 1388q-10 17 -24 32q-43 43 -104 43h805q-100 0 -175 -116l-995 -3980v0z" />
    <glyph glyph-name="w" unicode="w" horiz-adv-x="3510" 
d="M1024 1462v293l-549 2194v-146l37 -293l512 -2048v0zM2194 1462v293l-549 2194v-146l37 -293l512 -2048v0zM1024 0l-996 3980q-74 116 -174 116h1096q-60 0 -103 -43q-15 -15 -24 -32l347 -1388l183 731l-154 616q-76 116 -175 116h1097q-61 0 -104 -43q-15 -15 -24 -32
l274 -1096l274 1096q-10 17 -24 32q-43 43 -104 43h951q-100 0 -175 -116l-995 -3980l-585 2340l-585 -2340v0z" />
    <glyph glyph-name="x" unicode="x" horiz-adv-x="2633" 
d="M1865 731v146l-37 293l-439 1755v-292l476 -1902v0zM950 2925v147l-365 731l73 -293l292 -585v0zM-146 585q100 0 174 116v0l557 2224l-557 1113q-74 58 -174 58h1096q-60 0 -103 -43t-43 -104l439 -877l366 731v146q0 61 -43 104t-104 43h1024q-99 0 -175 -58
l-556 -1113l556 -2224q76 -116 175 -116h-950l-476 1901l-475 -1901h-731z" />
    <glyph glyph-name="y" unicode="y" horiz-adv-x="2633" 
d="M1170 804l36 585v1171l-621 1243v0l73 -293l475 -950v-1171l37 -585v0zM572 585q81 0 138 171q58 172 58 414v1390l-740 1478q-74 58 -174 58h1096q-60 0 -103 -43t-43 -104l402 -804l403 804q0 61 -43 104t-104 43h1024q-99 0 -175 -58l-739 -1478v-1390q0 -242 57 -414
q57 -171 138 -171h-1195z" />
    <glyph glyph-name="z" unicode="z" horiz-adv-x="2340" 
d="M292 731l1390 2779l73 293l-1390 -2779l-73 -293v0zM0 585v439l1243 2486h-1243l292 586h1756v-586l-1171 -2340h1171l-293 -585h-1755z" />
    <glyph glyph-name="asciitilde" unicode="~" horiz-adv-x="11410" 
d="M585 585q0 242 85 413q86 172 207 172h293q0 -122 -86 -207q-86 -86 -207 -86q122 0 207 -86q86 -85 86 -206h-585zM2486 73l-585 146l517 129l-78 310l-292 73v293l585 146v-585l-18 4l-129 -516v0zM3072 292l-78 310l-69 -17v585l585 -146v-293l-351 -88l-19 -76
l517 -129l-585 -146v0zM4388 146l110 439l-93 370l-236 -59v-604h-366l219 439l-219 439h366v-18l512 -128l-110 -439l110 -439h-293zM5120 292l-78 310l-69 -17v585l585 -146v-293l-351 -88l-19 -76l517 -129l-585 -146v0zM7533 292v18l-512 128l92 366l-92 366h293
l-92 -366l75 -297l236 59v604h366l-219 -439l219 -439h-366zM9654 292l-585 146v293l351 88l19 75l-516 130l585 146l78 -310l68 17v-585v0zM10532 146l110 439l-93 370l-236 -59v-604h-366l219 439l-219 439h366v-18l512 -128l-110 -439l110 -439h-293zM1316 512v731h-878
v-731h878zM877 219l-439 219v-146l-97 195l-49 25h37l-183 365l183 366h-37l49 24l97 195v-146l439 220l439 -220v146l98 -195l48 -24h-36l183 -366l-183 -365h36l-48 -25l-98 -195v146l-439 -219v0zM6144 292v878l17 -5l129 517l146 -585l293 -73v-586l-585 -146v0z
M8192 292v878l17 -5l129 517l146 -585l293 -73v-586l-585 -146v0z" />
    <glyph glyph-name="quotedblleft" unicode="&#x201c;" horiz-adv-x="585" 
 />
    <glyph glyph-name="quotedblright" unicode="&#x201d;" horiz-adv-x="585" 
 />
    </font>
</defs>
</svg>
